<?xml version="1.0" encoding="utf-8"?>
<!-- Generator: Adobe Illustrator 22.1.0, SVG Export Plug-In . SVG Version: 6.00 Build 0)  -->
<svg version="1.1" xmlns="http://www.w3.org/2000/svg" xmlns:xlink="http://www.w3.org/1999/xlink" x="0px" y="0px"
	 viewBox="0 0 650 650" style="enable-background:new 0 0 650 650;" xml:space="preserve">
<style type="text/css">
	.st0{display:none;}
	.st1{display:inline;fill:#FFFFFF;}
	.st2{display:inline;fill:#DFE3EB;}
	.st3{display:none;fill:#FFFFFF;}
	.st4{fill:#FFFFFF;}
	.st5{display:inline;fill:#374453;}
	.st6{display:inline;}
</style>
<g id="Geometriske_forhold" class="st0">
	<rect id="hvit_bakgrunn" x="-49" y="-301" class="st1" width="750" height="1334"/>
	<path id="Guide_17_1_" class="st2" d="M74.4,564.8c6.1,0,11,5,11,11c0,6.1-5,11-11,11s-11-5-11-11
		C63.4,569.7,68.3,564.8,74.4,564.8 M74.4,562.2c-7.5,0-13.6,6.1-13.6,13.6s6.1,13.6,13.6,13.6c7.5,0,13.6-6.1,13.6-13.6
		S82,562.2,74.4,562.2L74.4,562.2z"/>
	<path id="Guide_16_1_" class="st2" d="M134.7,564.8c6.1,0,11,5,11,11c0,6.1-5,11-11,11s-11-5-11-11
		C123.6,569.7,128.6,564.8,134.7,564.8 M134.7,562.2c-7.5,0-13.6,6.1-13.6,13.6s6.1,13.6,13.6,13.6c7.5,0,13.6-6.1,13.6-13.6
		S142.2,562.2,134.7,562.2L134.7,562.2z"/>
	<path id="Guide_15_1_" class="st2" d="M192.2,564.8c6.1,0,11,5,11,11c0,6.1-5,11-11,11s-11-5-11-11
		C181.2,569.7,186.2,564.8,192.2,564.8 M192.2,562.2c-7.5,0-13.6,6.1-13.6,13.6s6.1,13.6,13.6,13.6c7.5,0,13.6-6.1,13.6-13.6
		S199.8,562.2,192.2,562.2L192.2,562.2z"/>
	<path id="Guide_14_1_" class="st2" d="M254.4,564.8c6.1,0,11,5,11,11c0,6.1-5,11-11,11c-6.1,0-11-5-11-11
		C243.4,569.7,248.3,564.8,254.4,564.8 M254.4,562.2c-7.5,0-13.6,6.1-13.6,13.6s6.1,13.6,13.6,13.6s13.6-6.1,13.6-13.6
		S261.9,562.2,254.4,562.2L254.4,562.2z"/>
	<path id="Guide_13_1_" class="st2" d="M314.2,564.8c6.1,0,11,5,11,11c0,6.1-5,11-11,11s-11-5-11-11
		C303.2,569.7,308.2,564.8,314.2,564.8 M314.2,562.2c-7.5,0-13.6,6.1-13.6,13.6s6.1,13.6,13.6,13.6s13.6-6.1,13.6-13.6
		S321.8,562.2,314.2,562.2L314.2,562.2z"/>
	<path id="Guide_12_1_" class="st2" d="M371.8,564.8c6.1,0,11,5,11,11c0,6.1-5,11-11,11c-6.1,0-11-5-11-11
		C360.7,569.7,365.7,564.8,371.8,564.8 M371.8,562.2c-7.5,0-13.6,6.1-13.6,13.6s6.1,13.6,13.6,13.6c7.5,0,13.6-6.1,13.6-13.6
		S379.3,562.2,371.8,562.2L371.8,562.2z"/>
	<path id="Guide_11_1_" class="st2" d="M431.5,564.8c6.1,0,11,5,11,11c0,6.1-5,11-11,11s-11-5-11-11
		C420.5,569.7,425.4,564.8,431.5,564.8 M431.5,562.2c-7.5,0-13.6,6.1-13.6,13.6s6.1,13.6,13.6,13.6s13.6-6.1,13.6-13.6
		S439,562.2,431.5,562.2L431.5,562.2z"/>
	<path id="Guide_10_1_" class="st2" d="M493.7,564.8c6.1,0,11,5,11,11c0,6.1-5,11-11,11s-11-5-11-11
		C482.6,569.7,487.6,564.8,493.7,564.8 M493.7,562.2c-7.5,0-13.6,6.1-13.6,13.6s6.1,13.6,13.6,13.6s13.6-6.1,13.6-13.6
		S501.2,562.2,493.7,562.2L493.7,562.2z"/>
	<path id="Guide_9_1_" class="st2" d="M525.1,564.8c6.1,0,11,5,11,11c0,6.1-5,11-11,11s-11-5-11-11
		C514.1,569.7,519.1,564.8,525.1,564.8 M525.1,562.2c-7.5,0-13.6,6.1-13.6,13.6s6.1,13.6,13.6,13.6s13.6-6.1,13.6-13.6
		S532.7,562.2,525.1,562.2L525.1,562.2z"/>
	<path id="Guide_8_1_" class="st2" d="M584.9,564.8c6.1,0,11,5,11,11c0,6.1-5,11-11,11s-11-5-11-11
		C573.8,569.7,578.8,564.8,584.9,564.8 M584.9,562.2c-7.5,0-13.6,6.1-13.6,13.6s6.1,13.6,13.6,13.6c7.5,0,13.6-6.1,13.6-13.6
		S592.4,562.2,584.9,562.2L584.9,562.2z"/>
	<path id="Guide_7_1_" class="st2" d="M326,35.1c119.4,0,216.5,97.1,216.5,216.5S445.4,468.1,326,468.1S109.5,371,109.5,251.6
		S206.6,35.1,326,35.1 M326,32.6c-121,0-219.1,98.1-219.1,219.1S205,470.7,326,470.7s219.1-98.1,219.1-219.1S447,32.6,326,32.6
		L326,32.6z"/>
	<path id="Guide_6_1_" class="st2" d="M326,107.5c79.4,0,144.1,64.6,144.1,144.1S405.4,395.7,326,395.7s-144.1-64.6-144.1-144.1
		S246.6,107.5,326,107.5 M326,105c-81,0-146.7,65.7-146.7,146.7S245,398.3,326,398.3s146.7-65.7,146.7-146.7S407,105,326,105
		L326,105z"/>
	<path id="Guide_5_1_" class="st2" d="M326,184.7c31,0,56.2,25.2,56.2,56.2S357,297.1,326,297.1s-56.2-25.2-56.2-56.2
		S295,184.7,326,184.7 M326,182.1c-32.5,0-58.8,26.3-58.8,58.8s26.3,58.8,58.8,58.8s58.8-26.3,58.8-58.8S358.5,182.1,326,182.1
		L326,182.1z"/>
	<path id="Guide_4_1_" class="st2" d="M326,12.5c31,0,56.2,25.2,56.2,56.2S357,125,326,125s-56.2-25.2-56.2-56.2S295,12.5,326,12.5
		 M326,10c-32.5,0-58.8,26.3-58.8,58.8c0,32.5,26.3,58.8,58.8,58.8s58.8-26.3,58.8-58.8C384.8,36.3,358.5,10,326,10L326,10z"/>
	<path id="Guide_3_1_" class="st2" d="M326,207.3c18.5,0,33.6,15.1,33.6,33.6s-15.1,33.6-33.6,33.6c-18.5,0-33.6-15.1-33.6-33.6
		S307.5,207.3,326,207.3 M326,204.7c-20,0-36.2,16.2-36.2,36.2s16.2,36.2,36.2,36.2c20,0,36.2-16.2,36.2-36.2S346,204.7,326,204.7
		L326,204.7z"/>
	<path id="Guide_18" class="st2" d="M326,473.3c18.5,0,33.6,15.1,33.6,33.6c0,18.5-15.1,33.6-33.6,33.6c-18.5,0-33.6-15.1-33.6-33.6
		C292.4,488.4,307.5,473.3,326,473.3 M326,470.7c-20,0-36.2,16.2-36.2,36.2s16.2,36.2,36.2,36.2c20,0,36.2-16.2,36.2-36.2
		S346,470.7,326,470.7L326,470.7z"/>
	<path id="Guide_2_1_" class="st2" d="M326,35.1c18.5,0,33.6,15.1,33.6,33.6s-15.1,33.6-33.6,33.6s-33.6-15.1-33.6-33.6
		S307.5,35.1,326,35.1 M326,32.6c-20,0-36.2,16.2-36.2,36.2S306,105,326,105s36.2-16.2,36.2-36.2S346,32.6,326,32.6L326,32.6z"/>
	<rect id="Guide_1" x="324.7" y="-22.1" class="st2" width="2.6" height="529"/>
</g>
<g id="Grensesnitt">
	<rect id="hvit_bakgrunn_1_" x="-49" y="-301" class="st3" width="750" height="1334"/>
	<path id="Grensesnitt_-_Vertikal" class="st4" d="M40.7,595.5v-3.6h19.1v23.1h-3.6v-7.6c-0.8,1.3-1.7,2.5-2.7,3.6
		c-1,1.1-2.2,2-3.5,2.8c-1.3,0.8-2.9,1.4-4.6,1.8c-1.7,0.4-3.7,0.6-5.9,0.6c-2.8,0-5.4-0.5-7.8-1.5c-2.4-1-4.5-2.5-6.2-4.4
		c-1.7-2-3.1-4.4-4.1-7.4c-1-3-1.5-6.4-1.5-10.4c0-3.3,0.4-6.3,1.2-9.1c0.8-2.8,2.1-5.3,3.8-7.4c1.7-2.1,3.9-3.7,6.4-4.9
		c2.6-1.2,5.6-1.8,9.1-1.8c2.4,0,4.6,0.3,6.6,0.9c2,0.6,3.9,1.5,5.5,2.6c1.6,1.2,3,2.6,4.1,4.4c1.1,1.8,1.9,3.8,2.4,6.2H55
		c-0.4-1.7-1-3.1-1.9-4.5c-0.9-1.3-2-2.4-3.2-3.3c-1.2-0.9-2.6-1.6-4.2-2c-1.5-0.5-3.1-0.7-4.8-0.7c-2.9,0-5.5,0.5-7.6,1.5
		c-2.1,1-3.8,2.5-5.2,4.4c-1.4,1.9-2.4,4.1-3,6.8c-0.6,2.6-1,5.5-1,8.6c0,2.5,0.4,4.8,1.1,7.1c0.7,2.2,1.8,4.2,3.2,5.9
		c1.4,1.7,3.1,3,5.1,4c2,1,4.3,1.5,6.9,1.5c1.2,0,2.4-0.1,3.7-0.4c1.3-0.3,2.5-0.7,3.7-1.3c1.2-0.6,2.3-1.4,3.3-2.4
		c1-1,1.9-2.2,2.7-3.7c0.7-1.4,1.2-2.9,1.5-4.4s0.4-3.1,0.5-4.8H40.7z M91.3,594.7v20.3l-4.2-0.1v-44.6h17.5c4.9,0,8.7,0.9,11.3,2.8
		c2.6,1.8,3.9,4.8,3.9,9c0,2.8-0.6,5-1.7,6.7c-1.1,1.7-3,3.1-5.6,4.2c1.3,0.5,2.4,1.1,3.1,2c0.7,0.9,1.3,1.9,1.7,3
		c0.4,1.1,0.6,2.3,0.7,3.5c0.1,1.2,0.2,2.4,0.2,3.6c0,1.7,0.1,3.1,0.2,4.2c0.1,1.1,0.2,2,0.4,2.7c0.1,0.7,0.3,1.3,0.5,1.6
		c0.2,0.4,0.5,0.7,0.7,0.9v0.4l-4.6,0.1c-0.5-0.7-0.8-1.8-1-3.1c-0.2-1.3-0.3-2.7-0.4-4.2c-0.1-1.4-0.2-2.9-0.2-4.2
		c-0.1-1.4-0.2-2.5-0.3-3.3c-0.2-1.2-0.7-2.2-1.2-2.9c-0.6-0.7-1.2-1.3-2-1.6c-0.8-0.4-1.7-0.6-2.6-0.7c-1-0.1-2-0.2-3-0.2H91.3z
		 M104.4,591.1c1.6,0,3-0.2,4.4-0.5c1.3-0.3,2.5-0.9,3.5-1.6c1-0.7,1.8-1.6,2.4-2.8c0.6-1.1,0.9-2.5,0.9-4c0-1.7-0.3-3-0.9-4.1
		c-0.6-1.1-1.4-1.9-2.4-2.5c-1-0.6-2.2-1.1-3.5-1.3c-1.3-0.2-2.7-0.4-4.1-0.4H91.3v17.2H104.4z M147.3,614.9v-44.6H177v3.6h-25.5
		V590h23v3.6h-23v17.7h26.1v3.6H147.3z M209.2,576h-0.1v38.9h-4.2v-44.6h4.8l25.8,39h0.1v-39h4.2v44.6h-4.9L209.2,576z M271.1,601.6
		c0.2,2,0.6,3.7,1.3,5.1s1.7,2.5,2.8,3.4c1.1,0.9,2.4,1.5,3.9,1.9c1.5,0.4,3.1,0.6,4.8,0.6c2,0,3.7-0.2,5.1-0.7
		c1.4-0.5,2.6-1.2,3.5-2c0.9-0.8,1.6-1.8,2-2.9c0.4-1.1,0.7-2.3,0.7-3.5c0-1.7-0.4-3.1-1.2-4.2c-0.8-1.1-1.8-2-3.1-2.6
		c-1.3-0.7-2.7-1.2-4.3-1.6c-1.6-0.4-3.3-0.8-5-1.2c-1.7-0.4-3.4-0.9-5-1.4c-1.6-0.5-3.1-1.3-4.3-2.2c-1.3-0.9-2.3-2.1-3.1-3.5
		c-0.8-1.4-1.2-3.2-1.2-5.4c0-1.5,0.3-3,1-4.5c0.6-1.4,1.6-2.7,2.9-3.8c1.3-1.1,2.8-2,4.7-2.7c1.9-0.7,4.1-1,6.6-1
		c2.5,0,4.7,0.4,6.6,1.1c1.9,0.7,3.4,1.7,4.7,2.9c1.2,1.2,2.2,2.6,2.8,4.2c0.6,1.6,0.9,3.3,0.9,5.1h-4c0-1.7-0.3-3.2-0.9-4.4
		c-0.6-1.2-1.4-2.3-2.4-3c-1-0.8-2.2-1.4-3.5-1.7c-1.3-0.4-2.7-0.6-4.1-0.6c-2.1,0-4,0.3-5.4,0.9c-1.5,0.6-2.6,1.4-3.5,2.3
		s-1.5,2-1.8,3.2c-0.3,1.2-0.4,2.3-0.2,3.5c0.2,1.4,0.8,2.6,1.7,3.5c0.9,0.9,2,1.6,3.3,2.1c1.3,0.6,2.8,1,4.4,1.4
		c1.6,0.4,3.2,0.7,4.9,1.1c1.7,0.4,3.3,0.9,4.8,1.4c1.6,0.5,2.9,1.3,4.1,2.2c1.2,0.9,2.2,2.1,2.9,3.5c0.7,1.4,1.1,3.2,1.1,5.4
		c0,4.1-1.4,7.3-4.3,9.6c-2.9,2.3-6.9,3.4-12,3.4c-2.3,0-4.5-0.3-6.4-0.9c-2-0.6-3.7-1.5-5.1-2.7c-1.4-1.2-2.6-2.7-3.4-4.5
		c-0.8-1.8-1.2-3.9-1.2-6.4H271.1z M326.8,614.9v-44.6h29.7v3.6h-25.5V590h23v3.6h-23v17.7h26.1v3.6H326.8z M388.5,601.6
		c0.2,2,0.6,3.7,1.3,5.1s1.7,2.5,2.8,3.4c1.1,0.9,2.4,1.5,3.9,1.9c1.5,0.4,3.1,0.6,4.8,0.6c2,0,3.7-0.2,5.1-0.7
		c1.4-0.5,2.6-1.2,3.5-2c0.9-0.8,1.6-1.8,2-2.9c0.4-1.1,0.7-2.3,0.7-3.5c0-1.7-0.4-3.1-1.2-4.2c-0.8-1.1-1.8-2-3.1-2.6
		c-1.3-0.7-2.7-1.2-4.3-1.6c-1.6-0.4-3.3-0.8-5-1.2c-1.7-0.4-3.4-0.9-5-1.4c-1.6-0.5-3.1-1.3-4.3-2.2c-1.3-0.9-2.3-2.1-3.1-3.5
		c-0.8-1.4-1.2-3.2-1.2-5.4c0-1.5,0.3-3,1-4.5c0.6-1.4,1.6-2.7,2.9-3.8c1.3-1.1,2.8-2,4.7-2.7c1.9-0.7,4.1-1,6.6-1
		c2.5,0,4.7,0.4,6.6,1.1c1.9,0.7,3.4,1.7,4.7,2.9c1.2,1.2,2.2,2.6,2.8,4.2s0.9,3.3,0.9,5.1h-4c0-1.7-0.3-3.2-0.9-4.4
		c-0.6-1.2-1.4-2.3-2.4-3c-1-0.8-2.2-1.4-3.5-1.7c-1.3-0.4-2.7-0.6-4.1-0.6c-2.1,0-4,0.3-5.4,0.9c-1.5,0.6-2.6,1.4-3.5,2.3
		c-0.9,1-1.5,2-1.8,3.2c-0.3,1.2-0.4,2.3-0.2,3.5c0.2,1.4,0.8,2.6,1.7,3.5c0.9,0.9,2,1.6,3.3,2.1c1.3,0.6,2.8,1,4.4,1.4
		c1.6,0.4,3.2,0.7,4.9,1.1c1.7,0.4,3.3,0.9,4.8,1.4c1.6,0.5,2.9,1.3,4.1,2.2c1.2,0.9,2.2,2.1,2.9,3.5c0.7,1.4,1.1,3.2,1.1,5.4
		c0,4.1-1.4,7.3-4.3,9.6c-2.9,2.3-6.9,3.4-12,3.4c-2.3,0-4.5-0.3-6.4-0.9c-2-0.6-3.7-1.5-5.1-2.7c-1.4-1.2-2.6-2.7-3.4-4.5
		c-0.8-1.8-1.2-3.9-1.2-6.4H388.5z M448.5,576h-0.1v38.9h-4.2v-44.6h4.8l25.8,39h0.1v-39h4.2v44.6h-4.9L448.5,576z M506.3,614.9
		v-44.6h4.2v44.6H506.3z M537.8,570.3h32.5v3.6h-14.1v41h-4.2v-41h-14.1V570.3z M597.5,570.3H630v3.6h-14.1v41h-4.2v-41h-14.1V570.3
		z"/>
	<path id="Grensesnitt_-_G" class="st4" d="M325,496.7c-120.8,0-219.1-98.3-219.1-219.1S204.2,58.6,325,58.6l0-22.6l58.8,58.8
		L325,153.6l0-22.6c-80.9,0-146.7,65.8-146.7,146.7S244.1,424.3,325,424.3c44.1,0,81.4-39,81.4-85.1c0-19.9-16.2-36.1-36.1-36.1H325
		l0,22.5l-58.8-58.8L325,208l0,22.7h45.3c59.8,0,108.5,48.7,108.5,108.5c0,41-15.8,80.1-44.5,110.1C405,479.9,366.2,496.7,325,496.7
		z"/>
</g>
<g id="Grensesnitt_negativ" class="st0">
	<rect id="_x23_374453" x="-49" y="-301" class="st5" width="750" height="1334"/>
	<path id="Grensesnitt_-_Vertikal_1_" class="st1" d="M41.7,569.5v-3.6h19.1v23.1h-3.6v-7.6c-0.8,1.3-1.7,2.5-2.7,3.6
		c-1,1.1-2.2,2-3.5,2.8c-1.3,0.8-2.9,1.4-4.6,1.8c-1.7,0.4-3.7,0.6-5.9,0.6c-2.8,0-5.4-0.5-7.8-1.5c-2.4-1-4.5-2.5-6.2-4.4
		c-1.7-2-3.1-4.4-4.1-7.4c-1-3-1.5-6.4-1.5-10.4c0-3.3,0.4-6.3,1.2-9.1c0.8-2.8,2.1-5.3,3.8-7.4c1.7-2.1,3.9-3.7,6.4-4.9
		c2.6-1.2,5.6-1.8,9.1-1.8c2.4,0,4.6,0.3,6.6,0.9c2,0.6,3.9,1.5,5.5,2.6c1.6,1.2,3,2.6,4.1,4.4c1.1,1.8,1.9,3.8,2.4,6.2H56
		c-0.4-1.7-1-3.1-1.9-4.5c-0.9-1.3-2-2.4-3.2-3.3c-1.2-0.9-2.6-1.6-4.2-2c-1.5-0.5-3.1-0.7-4.8-0.7c-2.9,0-5.5,0.5-7.6,1.5
		c-2.1,1-3.8,2.5-5.2,4.4c-1.4,1.9-2.4,4.1-3,6.8c-0.6,2.6-1,5.5-1,8.6c0,2.5,0.4,4.8,1.1,7.1c0.7,2.2,1.8,4.2,3.2,5.9
		c1.4,1.7,3.1,3,5.1,4c2,1,4.3,1.5,6.9,1.5c1.2,0,2.4-0.1,3.7-0.4c1.3-0.3,2.5-0.7,3.7-1.3c1.2-0.6,2.3-1.4,3.3-2.4
		c1-1,1.9-2.2,2.7-3.7c0.7-1.4,1.2-2.9,1.5-4.4s0.4-3.1,0.5-4.8H41.7z M92.3,568.7v20.3l-4.2-0.1v-44.6h17.5c4.9,0,8.7,0.9,11.3,2.8
		c2.6,1.8,3.9,4.8,3.9,9c0,2.8-0.6,5-1.7,6.7c-1.1,1.7-3,3.1-5.6,4.2c1.3,0.5,2.4,1.1,3.1,2c0.7,0.9,1.3,1.9,1.7,3
		c0.4,1.1,0.6,2.3,0.7,3.5c0.1,1.2,0.2,2.4,0.2,3.6c0,1.7,0.1,3.1,0.2,4.2c0.1,1.1,0.2,2,0.4,2.7c0.1,0.7,0.3,1.3,0.5,1.6
		c0.2,0.4,0.5,0.7,0.7,0.9v0.4l-4.6,0.1c-0.5-0.7-0.8-1.8-1-3.1c-0.2-1.3-0.3-2.7-0.4-4.2c-0.1-1.4-0.2-2.9-0.2-4.2
		c-0.1-1.4-0.2-2.5-0.3-3.3c-0.2-1.2-0.7-2.2-1.2-2.9c-0.6-0.7-1.2-1.3-2-1.6c-0.8-0.4-1.7-0.6-2.6-0.7c-1-0.1-2-0.2-3-0.2H92.3z
		 M105.4,565.1c1.6,0,3-0.2,4.4-0.5c1.3-0.3,2.5-0.9,3.5-1.6c1-0.7,1.8-1.6,2.4-2.8c0.6-1.1,0.9-2.5,0.9-4c0-1.7-0.3-3-0.9-4.1
		c-0.6-1.1-1.4-1.9-2.4-2.5c-1-0.6-2.2-1.1-3.5-1.3c-1.3-0.2-2.7-0.4-4.1-0.4H92.3v17.2H105.4z M148.3,588.9v-44.6H178v3.6h-25.5
		V564h23v3.6h-23v17.7h26.1v3.6H148.3z M210.2,550h-0.1v38.9h-4.2v-44.6h4.8l25.8,39h0.1v-39h4.2v44.6h-4.9L210.2,550z M272.1,575.6
		c0.2,2,0.6,3.7,1.3,5.1s1.7,2.5,2.8,3.4c1.1,0.9,2.4,1.5,3.9,1.9c1.5,0.4,3.1,0.6,4.8,0.6c2,0,3.7-0.2,5.1-0.7
		c1.4-0.5,2.6-1.2,3.5-2c0.9-0.8,1.6-1.8,2-2.9c0.4-1.1,0.7-2.3,0.7-3.5c0-1.7-0.4-3.1-1.2-4.2c-0.8-1.1-1.8-2-3.1-2.6
		c-1.3-0.7-2.7-1.2-4.3-1.6c-1.6-0.4-3.3-0.8-5-1.2c-1.7-0.4-3.4-0.9-5-1.4c-1.6-0.5-3.1-1.3-4.3-2.2c-1.3-0.9-2.3-2.1-3.1-3.5
		c-0.8-1.4-1.2-3.2-1.2-5.4c0-1.5,0.3-3,1-4.5c0.6-1.4,1.6-2.7,2.9-3.8c1.3-1.1,2.8-2,4.7-2.7c1.9-0.7,4.1-1,6.6-1
		c2.5,0,4.7,0.4,6.6,1.1c1.9,0.7,3.4,1.7,4.7,2.9c1.2,1.2,2.2,2.6,2.8,4.2c0.6,1.6,0.9,3.3,0.9,5.1h-4c0-1.7-0.3-3.2-0.9-4.4
		c-0.6-1.2-1.4-2.3-2.4-3c-1-0.8-2.2-1.4-3.5-1.7c-1.3-0.4-2.7-0.6-4.1-0.6c-2.1,0-4,0.3-5.4,0.9c-1.5,0.6-2.6,1.4-3.5,2.3
		s-1.5,2-1.8,3.2c-0.3,1.2-0.4,2.3-0.2,3.5c0.2,1.4,0.8,2.6,1.7,3.5c0.9,0.9,2,1.6,3.3,2.1c1.3,0.6,2.8,1,4.4,1.4
		c1.6,0.4,3.2,0.7,4.9,1.1c1.7,0.4,3.3,0.9,4.8,1.4c1.6,0.5,2.9,1.3,4.1,2.2c1.2,0.9,2.2,2.1,2.9,3.5c0.7,1.4,1.1,3.2,1.1,5.4
		c0,4.1-1.4,7.3-4.3,9.6c-2.9,2.3-6.9,3.4-12,3.4c-2.3,0-4.5-0.3-6.4-0.9c-2-0.6-3.7-1.5-5.1-2.7c-1.4-1.2-2.6-2.7-3.4-4.5
		c-0.8-1.8-1.2-3.9-1.2-6.4H272.1z M327.8,588.9v-44.6h29.7v3.6h-25.5V564h23v3.6h-23v17.7h26.1v3.6H327.8z M389.5,575.6
		c0.2,2,0.6,3.7,1.3,5.1s1.7,2.5,2.8,3.4c1.1,0.9,2.4,1.5,3.9,1.9c1.5,0.4,3.1,0.6,4.8,0.6c2,0,3.7-0.2,5.1-0.7
		c1.4-0.5,2.6-1.2,3.5-2c0.9-0.8,1.6-1.8,2-2.9c0.4-1.1,0.7-2.3,0.7-3.5c0-1.7-0.4-3.1-1.2-4.2c-0.8-1.1-1.8-2-3.1-2.6
		c-1.3-0.7-2.7-1.2-4.3-1.6c-1.6-0.4-3.3-0.8-5-1.2c-1.7-0.4-3.4-0.9-5-1.4c-1.6-0.5-3.1-1.3-4.3-2.2c-1.3-0.9-2.3-2.1-3.1-3.5
		c-0.8-1.4-1.2-3.2-1.2-5.4c0-1.5,0.3-3,1-4.5c0.6-1.4,1.6-2.7,2.9-3.8c1.3-1.1,2.8-2,4.7-2.7c1.9-0.7,4.1-1,6.6-1
		c2.5,0,4.7,0.4,6.6,1.1c1.9,0.7,3.4,1.7,4.7,2.9c1.2,1.2,2.2,2.6,2.8,4.2s0.9,3.3,0.9,5.1h-4c0-1.7-0.3-3.2-0.9-4.4
		c-0.6-1.2-1.4-2.3-2.4-3c-1-0.8-2.2-1.4-3.5-1.7c-1.3-0.4-2.7-0.6-4.1-0.6c-2.1,0-4,0.3-5.4,0.9c-1.5,0.6-2.6,1.4-3.5,2.3
		c-0.9,1-1.5,2-1.8,3.2c-0.3,1.2-0.4,2.3-0.2,3.5c0.2,1.4,0.8,2.6,1.7,3.5c0.9,0.9,2,1.6,3.3,2.1c1.3,0.6,2.8,1,4.4,1.4
		c1.6,0.4,3.2,0.7,4.9,1.1c1.7,0.4,3.3,0.9,4.8,1.4c1.6,0.5,2.9,1.3,4.1,2.2c1.2,0.9,2.2,2.1,2.9,3.5c0.7,1.4,1.1,3.2,1.1,5.4
		c0,4.1-1.4,7.3-4.3,9.6c-2.9,2.3-6.9,3.4-12,3.4c-2.3,0-4.5-0.3-6.4-0.9c-2-0.6-3.7-1.5-5.1-2.7c-1.4-1.2-2.6-2.7-3.4-4.5
		c-0.8-1.8-1.2-3.9-1.2-6.4H389.5z M449.5,550h-0.1v38.9h-4.2v-44.6h4.8l25.8,39h0.1v-39h4.2v44.6h-4.9L449.5,550z M507.3,588.9
		v-44.6h4.2v44.6H507.3z M538.8,544.3h32.5v3.6h-14.1v41h-4.2v-41h-14.1V544.3z M598.5,544.3H631v3.6h-14.1v41h-4.2v-41h-14.1V544.3
		z"/>
	<path id="Grensesnitt_-_G_1_" class="st1" d="M326,470.7c-120.8,0-219.1-98.3-219.1-219.1S205.2,32.6,326,32.6l0-22.6l58.8,58.8
		L326,127.6l0-22.6c-80.9,0-146.7,65.8-146.7,146.7S245.1,398.3,326,398.3c44.1,0,81.4-39,81.4-85.1c0-19.9-16.2-36.1-36.1-36.1H326
		l0,22.5l-58.8-58.8L326,182l0,22.7h45.3c59.8,0,108.5,48.7,108.5,108.5c0,41-15.8,80.1-44.5,110.1C406,453.9,367.2,470.7,326,470.7
		z"/>
</g>
<g id="Grensesnitt_key__x28_black_x29_" class="st0">
	<rect id="hvit_bakgrunn_2_" x="-49" y="-301" class="st1" width="750" height="1334"/>
	<path id="Grensesnitt_-_Vertikal_2_" class="st6" d="M41.7,569.5v-3.6h19.1v23.1h-3.6v-7.6c-0.8,1.3-1.7,2.5-2.7,3.6
		c-1,1.1-2.2,2-3.5,2.8c-1.3,0.8-2.9,1.4-4.6,1.8c-1.7,0.4-3.7,0.6-5.9,0.6c-2.8,0-5.4-0.5-7.8-1.5c-2.4-1-4.5-2.5-6.2-4.4
		c-1.7-2-3.1-4.4-4.1-7.4c-1-3-1.5-6.4-1.5-10.4c0-3.3,0.4-6.3,1.2-9.1c0.8-2.8,2.1-5.3,3.8-7.4c1.7-2.1,3.9-3.7,6.4-4.9
		c2.6-1.2,5.6-1.8,9.1-1.8c2.4,0,4.6,0.3,6.6,0.9c2,0.6,3.9,1.5,5.5,2.6c1.6,1.2,3,2.6,4.1,4.4c1.1,1.8,1.9,3.8,2.4,6.2H56
		c-0.4-1.7-1-3.1-1.9-4.5c-0.9-1.3-2-2.4-3.2-3.3c-1.2-0.9-2.6-1.6-4.2-2c-1.5-0.5-3.1-0.7-4.8-0.7c-2.9,0-5.5,0.5-7.6,1.5
		c-2.1,1-3.8,2.5-5.2,4.4c-1.4,1.9-2.4,4.1-3,6.8c-0.6,2.6-1,5.5-1,8.6c0,2.5,0.4,4.8,1.1,7.1c0.7,2.2,1.8,4.2,3.2,5.9
		c1.4,1.7,3.1,3,5.1,4c2,1,4.3,1.5,6.9,1.5c1.2,0,2.4-0.1,3.7-0.4c1.3-0.3,2.5-0.7,3.7-1.3c1.2-0.6,2.3-1.4,3.3-2.4
		c1-1,1.9-2.2,2.7-3.7c0.7-1.4,1.2-2.9,1.5-4.4s0.4-3.1,0.5-4.8H41.7z M92.3,568.7v20.3l-4.2-0.1v-44.6h17.5c4.9,0,8.7,0.9,11.3,2.8
		c2.6,1.8,3.9,4.8,3.9,9c0,2.8-0.6,5-1.7,6.7c-1.1,1.7-3,3.1-5.6,4.2c1.3,0.5,2.4,1.1,3.1,2c0.7,0.9,1.3,1.9,1.7,3
		c0.4,1.1,0.6,2.3,0.7,3.5c0.1,1.2,0.2,2.4,0.2,3.6c0,1.7,0.1,3.1,0.2,4.2c0.1,1.1,0.2,2,0.4,2.7c0.1,0.7,0.3,1.3,0.5,1.6
		c0.2,0.4,0.5,0.7,0.7,0.9v0.4l-4.6,0.1c-0.5-0.7-0.8-1.8-1-3.1c-0.2-1.3-0.3-2.7-0.4-4.2c-0.1-1.4-0.2-2.9-0.2-4.2
		c-0.1-1.4-0.2-2.5-0.3-3.3c-0.2-1.2-0.7-2.2-1.2-2.9c-0.6-0.7-1.2-1.3-2-1.6c-0.8-0.4-1.7-0.6-2.6-0.7c-1-0.1-2-0.2-3-0.2H92.3z
		 M105.4,565.1c1.6,0,3-0.2,4.4-0.5c1.3-0.3,2.5-0.9,3.5-1.6c1-0.7,1.8-1.6,2.4-2.8c0.6-1.1,0.9-2.5,0.9-4c0-1.7-0.3-3-0.9-4.1
		c-0.6-1.1-1.4-1.9-2.4-2.5c-1-0.6-2.2-1.1-3.5-1.3c-1.3-0.2-2.7-0.4-4.1-0.4H92.3v17.2H105.4z M148.3,588.9v-44.6H178v3.6h-25.5
		V564h23v3.6h-23v17.7h26.1v3.6H148.3z M210.2,550h-0.1v38.9h-4.2v-44.6h4.8l25.8,39h0.1v-39h4.2v44.6h-4.9L210.2,550z M272.1,575.6
		c0.2,2,0.6,3.7,1.3,5.1s1.7,2.5,2.8,3.4c1.1,0.9,2.4,1.5,3.9,1.9c1.5,0.4,3.1,0.6,4.8,0.6c2,0,3.7-0.2,5.1-0.7
		c1.4-0.5,2.6-1.2,3.5-2c0.9-0.8,1.6-1.8,2-2.9c0.4-1.1,0.7-2.3,0.7-3.5c0-1.7-0.4-3.1-1.2-4.2c-0.8-1.1-1.8-2-3.1-2.6
		c-1.3-0.7-2.7-1.2-4.3-1.6c-1.6-0.4-3.3-0.8-5-1.2c-1.7-0.4-3.4-0.9-5-1.4c-1.6-0.5-3.1-1.3-4.3-2.2c-1.3-0.9-2.3-2.1-3.1-3.5
		c-0.8-1.4-1.2-3.2-1.2-5.4c0-1.5,0.3-3,1-4.5c0.6-1.4,1.6-2.7,2.9-3.8c1.3-1.1,2.8-2,4.7-2.7c1.9-0.7,4.1-1,6.6-1
		c2.5,0,4.7,0.4,6.6,1.1c1.9,0.7,3.4,1.7,4.7,2.9c1.2,1.2,2.2,2.6,2.8,4.2c0.6,1.6,0.9,3.3,0.9,5.1h-4c0-1.7-0.3-3.2-0.9-4.4
		c-0.6-1.2-1.4-2.3-2.4-3c-1-0.8-2.2-1.4-3.5-1.7c-1.3-0.4-2.7-0.6-4.1-0.6c-2.1,0-4,0.3-5.4,0.9c-1.5,0.6-2.6,1.4-3.5,2.3
		s-1.5,2-1.8,3.2c-0.3,1.2-0.4,2.3-0.2,3.5c0.2,1.4,0.8,2.6,1.7,3.5c0.9,0.9,2,1.6,3.3,2.1c1.3,0.6,2.8,1,4.4,1.4
		c1.6,0.4,3.2,0.7,4.9,1.1c1.7,0.4,3.3,0.9,4.8,1.4c1.6,0.5,2.9,1.3,4.1,2.2c1.2,0.9,2.2,2.1,2.9,3.5c0.7,1.4,1.1,3.2,1.1,5.4
		c0,4.1-1.4,7.3-4.3,9.6c-2.9,2.3-6.9,3.4-12,3.4c-2.3,0-4.5-0.3-6.4-0.9c-2-0.6-3.7-1.5-5.1-2.7c-1.4-1.2-2.6-2.7-3.4-4.5
		c-0.8-1.8-1.2-3.9-1.2-6.4H272.1z M327.8,588.9v-44.6h29.7v3.6h-25.5V564h23v3.6h-23v17.7h26.1v3.6H327.8z M389.5,575.6
		c0.2,2,0.6,3.7,1.3,5.1s1.7,2.5,2.8,3.4c1.1,0.9,2.4,1.5,3.9,1.9c1.5,0.4,3.1,0.6,4.8,0.6c2,0,3.7-0.2,5.1-0.7
		c1.4-0.5,2.6-1.2,3.5-2c0.9-0.8,1.6-1.8,2-2.9c0.4-1.1,0.7-2.3,0.7-3.5c0-1.7-0.4-3.1-1.2-4.2c-0.8-1.1-1.8-2-3.1-2.6
		c-1.3-0.7-2.7-1.2-4.3-1.6c-1.6-0.4-3.3-0.8-5-1.2c-1.7-0.4-3.4-0.9-5-1.4c-1.6-0.5-3.1-1.3-4.3-2.2c-1.3-0.9-2.3-2.1-3.1-3.5
		c-0.8-1.4-1.2-3.2-1.2-5.4c0-1.5,0.3-3,1-4.5c0.6-1.4,1.6-2.7,2.9-3.8c1.3-1.1,2.8-2,4.7-2.7c1.9-0.7,4.1-1,6.6-1
		c2.5,0,4.7,0.4,6.6,1.1c1.9,0.7,3.4,1.7,4.7,2.9c1.2,1.2,2.2,2.6,2.8,4.2s0.9,3.3,0.9,5.1h-4c0-1.7-0.3-3.2-0.9-4.4
		c-0.6-1.2-1.4-2.3-2.4-3c-1-0.8-2.2-1.4-3.5-1.7c-1.3-0.4-2.7-0.6-4.1-0.6c-2.1,0-4,0.3-5.4,0.9c-1.5,0.6-2.6,1.4-3.5,2.3
		c-0.9,1-1.5,2-1.8,3.2c-0.3,1.2-0.4,2.3-0.2,3.5c0.2,1.4,0.8,2.6,1.7,3.5c0.9,0.9,2,1.6,3.3,2.1c1.3,0.6,2.8,1,4.4,1.4
		c1.6,0.4,3.2,0.7,4.9,1.1c1.7,0.4,3.3,0.9,4.8,1.4c1.6,0.5,2.9,1.3,4.1,2.2c1.2,0.9,2.2,2.1,2.9,3.5c0.7,1.4,1.1,3.2,1.1,5.4
		c0,4.1-1.4,7.3-4.3,9.6c-2.9,2.3-6.9,3.4-12,3.4c-2.3,0-4.5-0.3-6.4-0.9c-2-0.6-3.7-1.5-5.1-2.7c-1.4-1.2-2.6-2.7-3.4-4.5
		c-0.8-1.8-1.2-3.9-1.2-6.4H389.5z M449.5,550h-0.1v38.9h-4.2v-44.6h4.8l25.8,39h0.1v-39h4.2v44.6h-4.9L449.5,550z M507.3,588.9
		v-44.6h4.2v44.6H507.3z M538.8,544.3h32.5v3.6h-14.1v41h-4.2v-41h-14.1V544.3z M598.5,544.3H631v3.6h-14.1v41h-4.2v-41h-14.1V544.3
		z"/>
	<path id="Grensesnitt_-_G_2_" class="st6" d="M326,470.7c-120.8,0-219.1-98.3-219.1-219.1S205.2,32.6,326,32.6l0-22.6l58.8,58.8
		L326,127.6l0-22.6c-80.9,0-146.7,65.8-146.7,146.7S245.1,398.3,326,398.3c44.1,0,81.4-39,81.4-85.1c0-19.9-16.2-36.1-36.1-36.1H326
		l0,22.5l-58.8-58.8L326,182l0,22.7h45.3c59.8,0,108.5,48.7,108.5,108.5c0,41-15.8,80.1-44.5,110.1C406,453.9,367.2,470.7,326,470.7
		z"/>
</g>
<g id="Grensesnitt_hvit" class="st0">
	<rect id="key__x28_black_x29__bakgrunn" x="-49" y="-301" class="st6" width="750" height="1334"/>
	<path id="Grensesnitt_-_Vertikal_3_" class="st1" d="M41.7,569.5v-3.6h19.1v23.1h-3.6v-7.6c-0.8,1.3-1.7,2.5-2.7,3.6
		c-1,1.1-2.2,2-3.5,2.8c-1.3,0.8-2.9,1.4-4.6,1.8c-1.7,0.4-3.7,0.6-5.9,0.6c-2.8,0-5.4-0.5-7.8-1.5c-2.4-1-4.5-2.5-6.2-4.4
		c-1.7-2-3.1-4.4-4.1-7.4c-1-3-1.5-6.4-1.5-10.4c0-3.3,0.4-6.3,1.2-9.1c0.8-2.8,2.1-5.3,3.8-7.4c1.7-2.1,3.9-3.7,6.4-4.9
		c2.6-1.2,5.6-1.8,9.1-1.8c2.4,0,4.6,0.3,6.6,0.9c2,0.6,3.9,1.5,5.5,2.6c1.6,1.2,3,2.6,4.1,4.4c1.1,1.8,1.9,3.8,2.4,6.2H56
		c-0.4-1.7-1-3.1-1.9-4.5c-0.9-1.3-2-2.4-3.2-3.3c-1.2-0.9-2.6-1.6-4.2-2c-1.5-0.5-3.1-0.7-4.8-0.7c-2.9,0-5.5,0.5-7.6,1.5
		c-2.1,1-3.8,2.5-5.2,4.4c-1.4,1.9-2.4,4.1-3,6.8c-0.6,2.6-1,5.5-1,8.6c0,2.5,0.4,4.8,1.1,7.1c0.7,2.2,1.8,4.2,3.2,5.9
		c1.4,1.7,3.1,3,5.1,4c2,1,4.3,1.5,6.9,1.5c1.2,0,2.4-0.1,3.7-0.4c1.3-0.3,2.5-0.7,3.7-1.3c1.2-0.6,2.3-1.4,3.3-2.4
		c1-1,1.9-2.2,2.7-3.7c0.7-1.4,1.2-2.9,1.5-4.4s0.4-3.1,0.5-4.8H41.7z M92.3,568.7v20.3l-4.2-0.1v-44.6h17.5c4.9,0,8.7,0.9,11.3,2.8
		c2.6,1.8,3.9,4.8,3.9,9c0,2.8-0.6,5-1.7,6.7c-1.1,1.7-3,3.1-5.6,4.2c1.3,0.5,2.4,1.1,3.1,2c0.7,0.9,1.3,1.9,1.7,3
		c0.4,1.1,0.6,2.3,0.7,3.5c0.1,1.2,0.2,2.4,0.2,3.6c0,1.7,0.1,3.1,0.2,4.2c0.1,1.1,0.2,2,0.4,2.7c0.1,0.7,0.3,1.3,0.5,1.6
		c0.2,0.4,0.5,0.7,0.7,0.9v0.4l-4.6,0.1c-0.5-0.7-0.8-1.8-1-3.1c-0.2-1.3-0.3-2.7-0.4-4.2c-0.1-1.4-0.2-2.9-0.2-4.2
		c-0.1-1.4-0.2-2.5-0.3-3.3c-0.2-1.2-0.7-2.2-1.2-2.9c-0.6-0.7-1.2-1.3-2-1.6c-0.8-0.4-1.7-0.6-2.6-0.7c-1-0.1-2-0.2-3-0.2H92.3z
		 M105.4,565.1c1.6,0,3-0.2,4.4-0.5c1.3-0.3,2.5-0.9,3.5-1.6c1-0.7,1.8-1.6,2.4-2.8c0.6-1.1,0.9-2.5,0.9-4c0-1.7-0.3-3-0.9-4.1
		c-0.6-1.1-1.4-1.9-2.4-2.5c-1-0.6-2.2-1.1-3.5-1.3c-1.3-0.2-2.7-0.4-4.1-0.4H92.3v17.2H105.4z M148.3,588.9v-44.6H178v3.6h-25.5
		V564h23v3.6h-23v17.7h26.1v3.6H148.3z M210.2,550h-0.1v38.9h-4.2v-44.6h4.8l25.8,39h0.1v-39h4.2v44.6h-4.9L210.2,550z M272.1,575.6
		c0.2,2,0.6,3.7,1.3,5.1s1.7,2.5,2.8,3.4c1.1,0.9,2.4,1.5,3.9,1.9c1.5,0.4,3.1,0.6,4.8,0.6c2,0,3.7-0.2,5.1-0.7
		c1.4-0.5,2.6-1.2,3.5-2c0.9-0.8,1.6-1.8,2-2.9c0.4-1.1,0.7-2.3,0.7-3.5c0-1.7-0.4-3.1-1.2-4.2c-0.8-1.1-1.8-2-3.1-2.6
		c-1.3-0.7-2.7-1.2-4.3-1.6c-1.6-0.4-3.3-0.8-5-1.2c-1.7-0.4-3.4-0.9-5-1.4c-1.6-0.5-3.1-1.3-4.3-2.2c-1.3-0.9-2.3-2.1-3.1-3.5
		c-0.8-1.4-1.2-3.2-1.2-5.4c0-1.5,0.3-3,1-4.5c0.6-1.4,1.6-2.7,2.9-3.8c1.3-1.1,2.8-2,4.7-2.7c1.9-0.7,4.1-1,6.6-1
		c2.5,0,4.7,0.4,6.6,1.1c1.9,0.7,3.4,1.7,4.7,2.9c1.2,1.2,2.2,2.6,2.8,4.2c0.6,1.6,0.9,3.3,0.9,5.1h-4c0-1.7-0.3-3.2-0.9-4.4
		c-0.6-1.2-1.4-2.3-2.4-3c-1-0.8-2.2-1.4-3.5-1.7c-1.3-0.4-2.7-0.6-4.1-0.6c-2.1,0-4,0.3-5.4,0.9c-1.5,0.6-2.6,1.4-3.5,2.3
		s-1.5,2-1.8,3.2c-0.3,1.2-0.4,2.3-0.2,3.5c0.2,1.4,0.8,2.6,1.7,3.5c0.9,0.9,2,1.6,3.3,2.1c1.3,0.6,2.8,1,4.4,1.4
		c1.6,0.4,3.2,0.7,4.9,1.1c1.7,0.4,3.3,0.9,4.8,1.4c1.6,0.5,2.9,1.3,4.1,2.2c1.2,0.9,2.2,2.1,2.9,3.5c0.7,1.4,1.1,3.2,1.1,5.4
		c0,4.1-1.4,7.3-4.3,9.6c-2.9,2.3-6.9,3.4-12,3.4c-2.3,0-4.5-0.3-6.4-0.9c-2-0.6-3.7-1.5-5.1-2.7c-1.4-1.2-2.6-2.7-3.4-4.5
		c-0.8-1.8-1.2-3.9-1.2-6.4H272.1z M327.8,588.9v-44.6h29.7v3.6h-25.5V564h23v3.6h-23v17.7h26.1v3.6H327.8z M389.5,575.6
		c0.2,2,0.6,3.7,1.3,5.1s1.7,2.5,2.8,3.4c1.1,0.9,2.4,1.5,3.9,1.9c1.5,0.4,3.1,0.6,4.8,0.6c2,0,3.7-0.2,5.1-0.7
		c1.4-0.5,2.6-1.2,3.5-2c0.9-0.8,1.6-1.8,2-2.9c0.4-1.1,0.7-2.3,0.7-3.5c0-1.7-0.4-3.1-1.2-4.2c-0.8-1.1-1.8-2-3.1-2.6
		c-1.3-0.7-2.7-1.2-4.3-1.6c-1.6-0.4-3.3-0.8-5-1.2c-1.7-0.4-3.4-0.9-5-1.4c-1.6-0.5-3.1-1.3-4.3-2.2c-1.3-0.9-2.3-2.1-3.1-3.5
		c-0.8-1.4-1.2-3.2-1.2-5.4c0-1.5,0.3-3,1-4.5c0.6-1.4,1.6-2.7,2.9-3.8c1.3-1.1,2.8-2,4.7-2.7c1.9-0.7,4.1-1,6.6-1
		c2.5,0,4.7,0.4,6.6,1.1c1.9,0.7,3.4,1.7,4.7,2.9c1.2,1.2,2.2,2.6,2.8,4.2s0.9,3.3,0.9,5.1h-4c0-1.7-0.3-3.2-0.9-4.4
		c-0.6-1.2-1.4-2.3-2.4-3c-1-0.8-2.2-1.4-3.5-1.7c-1.3-0.4-2.7-0.6-4.1-0.6c-2.1,0-4,0.3-5.4,0.9c-1.5,0.6-2.6,1.4-3.5,2.3
		c-0.9,1-1.5,2-1.8,3.2c-0.3,1.2-0.4,2.3-0.2,3.5c0.2,1.4,0.8,2.6,1.7,3.5c0.9,0.9,2,1.6,3.3,2.1c1.3,0.6,2.8,1,4.4,1.4
		c1.6,0.4,3.2,0.7,4.9,1.1c1.7,0.4,3.3,0.9,4.8,1.4c1.6,0.5,2.9,1.3,4.1,2.2c1.2,0.9,2.2,2.1,2.9,3.5c0.7,1.4,1.1,3.2,1.1,5.4
		c0,4.1-1.4,7.3-4.3,9.6c-2.9,2.3-6.9,3.4-12,3.4c-2.3,0-4.5-0.3-6.4-0.9c-2-0.6-3.7-1.5-5.1-2.7c-1.4-1.2-2.6-2.7-3.4-4.5
		c-0.8-1.8-1.2-3.9-1.2-6.4H389.5z M449.5,550h-0.1v38.9h-4.2v-44.6h4.8l25.8,39h0.1v-39h4.2v44.6h-4.9L449.5,550z M507.3,588.9
		v-44.6h4.2v44.6H507.3z M538.8,544.3h32.5v3.6h-14.1v41h-4.2v-41h-14.1V544.3z M598.5,544.3H631v3.6h-14.1v41h-4.2v-41h-14.1V544.3
		z"/>
	<path id="Grensesnitt_-_G_3_" class="st1" d="M326,470.7c-120.8,0-219.1-98.3-219.1-219.1S205.2,32.6,326,32.6l0-22.6l58.8,58.8
		L326,127.6l0-22.6c-80.9,0-146.7,65.8-146.7,146.7S245.1,398.3,326,398.3c44.1,0,81.4-39,81.4-85.1c0-19.9-16.2-36.1-36.1-36.1H326
		l0,22.5l-58.8-58.8L326,182l0,22.7h45.3c59.8,0,108.5,48.7,108.5,108.5c0,41-15.8,80.1-44.5,110.1C406,453.9,367.2,470.7,326,470.7
		z"/>
</g>
</svg>
