<?xml version="1.0" encoding="utf-8"?>
<!-- Generator: Adobe Illustrator 22.1.0, SVG Export Plug-In . SVG Version: 6.00 Build 0)  -->
<svg version="1.1" xmlns="http://www.w3.org/2000/svg" xmlns:xlink="http://www.w3.org/1999/xlink" x="0px" y="0px"
	 viewBox="0 0 1390 369" style="enable-background:new 0 0 1390 369;" xml:space="preserve">
<style type="text/css">
	.st0{display:none;}
	.st1{display:inline;fill:#DFE3EB;}
	.st2{display:none;fill:#FFFFFF;}
	.st3{fill:#FFFFFF;}
	.st4{display:inline;fill:#374453;}
	.st5{display:inline;fill:#FFFFFF;}
	.st6{display:inline;}
</style>
<g id="Geometriske_forhold" class="st0">
	<path id="Guide_7_1_" class="st1" d="M176.6,36.5c85.1,0,154.4,69.3,154.4,154.4s-69.3,154.4-154.4,154.4S22.2,276.1,22.2,190.9
		S91.5,36.5,176.6,36.5 M176.6,34.7c-86.3,0-156.2,69.9-156.2,156.2s69.9,156.2,156.2,156.2s156.2-69.9,156.2-156.2
		S262.9,34.7,176.6,34.7L176.6,34.7z"/>
	<path id="Guide_6_1_" class="st1" d="M176.6,88.2c56.7,0,102.8,46.1,102.8,102.8s-46.1,102.8-102.8,102.8S73.9,247.6,73.9,190.9
		S120,88.2,176.6,88.2 M176.6,86.3C118.9,86.3,72,133.2,72,190.9s46.8,104.6,104.6,104.6s104.6-46.8,104.6-104.6
		S234.4,86.3,176.6,86.3L176.6,86.3z"/>
	<path id="Guide_5_1_" class="st1" d="M176.6,143.2c22.1,0,40.1,18,40.1,40.1s-18,40.1-40.1,40.1s-40.1-18-40.1-40.1
		S154.5,143.2,176.6,143.2 M176.6,141.3c-23.2,0-41.9,18.8-41.9,41.9s18.8,41.9,41.9,41.9s41.9-18.8,41.9-41.9
		S199.8,141.3,176.6,141.3L176.6,141.3z"/>
	<path id="Guide_4_1_" class="st1" d="M176.6,20.4c22.1,0,40.1,18,40.1,40.1s-18,40.1-40.1,40.1s-40.1-18-40.1-40.1
		S154.5,20.4,176.6,20.4 M176.6,18.6c-23.2,0-41.9,18.8-41.9,41.9c0,23.2,18.8,41.9,41.9,41.9s41.9-18.8,41.9-41.9
		C218.6,37.3,199.8,18.6,176.6,18.6L176.6,18.6z"/>
	<path id="Guide_3_1_" class="st1" d="M176.6,159.3c13.2,0,24,10.8,24,24c0,13.2-10.8,24-24,24c-13.2,0-24-10.8-24-24
		C152.7,170,163.4,159.3,176.6,159.3 M176.6,157.4c-14.3,0-25.8,11.6-25.8,25.8c0,14.3,11.6,25.8,25.8,25.8
		c14.3,0,25.8-11.6,25.8-25.8C202.5,169,190.9,157.4,176.6,157.4L176.6,157.4z"/>
	<path id="Guide_2_1_" class="st1" d="M176.6,36.5c13.2,0,24,10.8,24,24s-10.8,24-24,24c-13.2,0-24-10.8-24-24
		S163.4,36.5,176.6,36.5 M176.6,34.7c-14.3,0-25.8,11.6-25.8,25.8s11.6,25.8,25.8,25.8s25.8-11.6,25.8-25.8S190.9,34.7,176.6,34.7
		L176.6,34.7z"/>
	<rect id="Guide_1" x="175.7" y="-4.3" class="st1" width="1.8" height="377.3"/>
</g>
<g id="Grensesnitt">
	<rect id="hvit_bakgrunn" x="-74" y="-68" class="st2" width="1334" height="500"/>
	<path id="Grensesnitt_-_Horisontal" class="st3" d="M454.4,186.5V181h29.3v35.3h-5.5v-11.7c-1.2,2-2.6,3.9-4.1,5.6
		c-1.6,1.7-3.3,3.1-5.4,4.3c-2,1.2-4.4,2.1-7,2.7c-2.7,0.6-5.7,1-9,1c-4.3,0-8.3-0.8-12-2.3c-3.7-1.5-6.8-3.8-9.5-6.8
		c-2.7-3-4.7-6.8-6.2-11.3c-1.5-4.6-2.2-9.9-2.2-16c0-5,0.6-9.7,1.9-14c1.3-4.3,3.2-8.1,5.8-11.3c2.6-3.2,5.9-5.7,9.9-7.6
		c4-1.8,8.6-2.8,14-2.8c3.6,0,7,0.4,10.1,1.3c3.1,0.9,6,2.2,8.5,4c2.5,1.8,4.6,4.1,6.3,6.7c1.7,2.7,2.9,5.9,3.7,9.5h-6.6
		c-0.6-2.5-1.5-4.8-2.9-6.8c-1.4-2-3-3.7-4.9-5.1c-1.9-1.4-4-2.4-6.4-3.1c-2.3-0.7-4.8-1.1-7.3-1.1c-4.5,0-8.4,0.8-11.6,2.4
		c-3.2,1.6-5.9,3.8-8,6.7c-2.1,2.9-3.6,6.3-4.6,10.4c-1,4-1.5,8.4-1.5,13.2c0,3.8,0.6,7.4,1.7,10.8c1.1,3.4,2.7,6.4,4.8,9
		c2.1,2.6,4.7,4.7,7.8,6.2c3.1,1.5,6.6,2.3,10.5,2.3c1.8,0,3.7-0.2,5.7-0.6c2-0.4,3.9-1.1,5.7-2c1.8-0.9,3.5-2.2,5.1-3.7
		c1.6-1.5,2.9-3.4,4.1-5.6c1.1-2.2,1.8-4.4,2.2-6.7c0.4-2.3,0.6-4.8,0.7-7.4H454.4z M531.9,185.3v31.1l-6.5-0.1V148h26.8
		c7.5,0,13.3,1.4,17.3,4.2c4,2.8,6,7.4,6,13.7c0,4.3-0.9,7.7-2.6,10.3c-1.7,2.5-4.6,4.7-8.5,6.5c2,0.7,3.6,1.7,4.7,3
		c1.1,1.3,2,2.8,2.6,4.6c0.6,1.7,0.9,3.5,1.1,5.4c0.2,1.9,0.3,3.7,0.3,5.5c0.1,2.6,0.2,4.7,0.3,6.5c0.2,1.7,0.3,3.1,0.6,4.2
		c0.2,1.1,0.5,1.9,0.8,2.5c0.3,0.6,0.7,1.1,1.1,1.4v0.6l-7.1,0.1c-0.7-1.1-1.2-2.7-1.5-4.7c-0.3-2-0.5-4.1-0.7-6.4
		c-0.2-2.2-0.3-4.4-0.4-6.5c-0.1-2.1-0.3-3.8-0.5-5.1c-0.4-1.8-1-3.3-1.9-4.4c-0.9-1.1-1.9-1.9-3.1-2.5c-1.2-0.6-2.6-0.9-4-1.1
		c-1.5-0.2-3-0.3-4.6-0.3H531.9z M552,179.8c2.4,0,4.6-0.3,6.7-0.8c2.1-0.5,3.8-1.3,5.4-2.4s2.7-2.5,3.6-4.2
		c0.9-1.7,1.3-3.8,1.3-6.2c0-2.5-0.5-4.6-1.4-6.3c-0.9-1.6-2.2-2.9-3.7-3.9c-1.6-1-3.3-1.6-5.3-2s-4.1-0.6-6.2-0.6h-20.5v26.3H552z
		 M617.7,216.3V148h45.5v5.5h-39v24.7h35.2v5.5h-35.2v27.2h40v5.5H617.7z M712.5,156.7h-0.2v59.6h-6.5V148h7.3l39.5,59.7h0.2V148
		h6.5v68.4h-7.5L712.5,156.7z M807.3,195.9c0.3,3,0.9,5.6,2,7.7c1.1,2.1,2.5,3.8,4.3,5.2c1.7,1.3,3.8,2.3,6,2.9
		c2.3,0.6,4.7,0.9,7.3,0.9c3,0,5.7-0.4,7.9-1.1c2.2-0.8,4-1.8,5.4-3.1c1.4-1.3,2.4-2.8,3.1-4.5c0.7-1.7,1-3.5,1-5.4
		c0-2.7-0.6-4.8-1.8-6.5c-1.2-1.6-2.8-3-4.7-4c-1.9-1-4.1-1.9-6.6-2.5c-2.5-0.6-5.1-1.3-7.7-1.9c-2.6-0.6-5.2-1.3-7.7-2.1
		c-2.5-0.8-4.7-1.9-6.6-3.3c-1.9-1.4-3.5-3.2-4.7-5.4c-1.2-2.2-1.8-5-1.8-8.3c0-2.3,0.5-4.6,1.5-6.8c1-2.2,2.4-4.2,4.4-5.9
		c1.9-1.7,4.4-3.1,7.3-4.1s6.3-1.5,10.1-1.5c3.9,0,7.2,0.5,10.1,1.6c2.9,1.1,5.3,2.6,7.2,4.4c1.9,1.9,3.3,4,4.3,6.5
		c0.9,2.5,1.4,5.1,1.4,7.9h-6.2c0-2.6-0.5-4.8-1.4-6.7c-0.9-1.9-2.2-3.5-3.8-4.7c-1.6-1.2-3.4-2.1-5.4-2.7c-2-0.6-4.1-0.9-6.3-0.9
		c-3.3,0-6.1,0.5-8.3,1.4c-2.2,0.9-4,2.1-5.4,3.6c-1.3,1.5-2.2,3.1-2.8,4.8c-0.5,1.8-0.6,3.5-0.3,5.3c0.4,2.2,1.3,4,2.7,5.3
		c1.4,1.3,3.1,2.4,5.1,3.3c2,0.9,4.3,1.6,6.7,2.1c2.4,0.5,4.9,1.1,7.5,1.7c2.5,0.6,5,1.3,7.4,2.1c2.4,0.8,4.5,1.9,6.3,3.3
		c1.8,1.4,3.3,3.2,4.4,5.4c1.1,2.2,1.7,4.9,1.7,8.2c0,6.3-2.2,11.2-6.6,14.7c-4.4,3.5-10.5,5.2-18.4,5.2c-3.5,0-6.8-0.5-9.9-1.4
		c-3-0.9-5.7-2.3-7.9-4.2c-2.2-1.9-3.9-4.2-5.2-6.9s-1.9-6-1.9-9.7H807.3z M892.7,216.3V148h45.5v5.5h-39v24.7h35.2v5.5h-35.2v27.2
		h40v5.5H892.7z M987.1,195.9c0.3,3,0.9,5.6,2,7.7c1.1,2.1,2.5,3.8,4.3,5.2c1.7,1.3,3.8,2.3,6,2.9c2.3,0.6,4.7,0.9,7.3,0.9
		c3,0,5.7-0.4,7.9-1.1c2.2-0.8,4-1.8,5.4-3.1c1.4-1.3,2.4-2.8,3.1-4.5c0.7-1.7,1-3.5,1-5.4c0-2.7-0.6-4.8-1.8-6.5
		c-1.2-1.6-2.8-3-4.7-4c-1.9-1-4.1-1.9-6.6-2.5c-2.5-0.6-5.1-1.3-7.7-1.9c-2.6-0.6-5.2-1.3-7.7-2.1c-2.5-0.8-4.7-1.9-6.6-3.3
		c-1.9-1.4-3.5-3.2-4.7-5.4c-1.2-2.2-1.8-5-1.8-8.3c0-2.3,0.5-4.6,1.5-6.8c1-2.2,2.4-4.2,4.4-5.9c1.9-1.7,4.4-3.1,7.3-4.1
		c2.9-1,6.3-1.5,10.1-1.5c3.9,0,7.2,0.5,10.1,1.6c2.9,1.1,5.3,2.6,7.2,4.4c1.9,1.9,3.3,4,4.3,6.5c1,2.5,1.4,5.1,1.4,7.9h-6.2
		c0-2.6-0.5-4.8-1.4-6.7c-0.9-1.9-2.2-3.5-3.8-4.7c-1.6-1.2-3.4-2.1-5.4-2.7c-2-0.6-4.1-0.9-6.3-0.9c-3.3,0-6.1,0.5-8.3,1.4
		c-2.2,0.9-4,2.1-5.4,3.6c-1.3,1.5-2.2,3.1-2.8,4.8c-0.5,1.8-0.6,3.5-0.3,5.3c0.4,2.2,1.3,4,2.7,5.3c1.4,1.3,3.1,2.4,5.1,3.3
		c2,0.9,4.3,1.6,6.7,2.1c2.4,0.5,4.9,1.1,7.5,1.7c2.5,0.6,5,1.3,7.4,2.1c2.4,0.8,4.5,1.9,6.3,3.3c1.8,1.4,3.3,3.2,4.4,5.4
		c1.1,2.2,1.7,4.9,1.7,8.2c0,6.3-2.2,11.2-6.6,14.7c-4.4,3.5-10.5,5.2-18.4,5.2c-3.5,0-6.8-0.5-9.9-1.4c-3-0.9-5.7-2.3-7.9-4.2
		c-2.2-1.9-3.9-4.2-5.2-6.9s-1.9-6-1.9-9.7H987.1z M1079,156.7h-0.2v59.6h-6.5V148h7.3l39.5,59.7h0.2V148h6.5v68.4h-7.5L1079,156.7z
		 M1167.5,216.3V148h6.5v68.4H1167.5z M1215.7,148h49.8v5.5h-21.7v62.9h-6.5v-62.9h-21.7V148z M1307.2,148h49.8v5.5h-21.7v62.9h-6.5
		v-62.9h-21.7V148z"/>
	<path id="Grensesnitt_-_G" class="st3" d="M200.5,337.7c-81.2,0-147.3-66.1-147.3-147.3S119.3,43.2,200.5,43.2l0-15.2l39.5,39.5
		l-39.5,39.5l0-15.2c-54.4,0-98.6,44.2-98.6,98.6s44.2,98.6,98.6,98.6c29.7,0,54.7-26.2,54.7-57.2c0-13.4-10.9-24.3-24.3-24.3h-30.5
		l0,15.1L161,183.2l39.5-39.5l0,15.3H231c40.2,0,72.9,32.7,72.9,72.9c0,27.6-10.6,53.9-29.9,74C254.3,326.4,228.2,337.7,200.5,337.7
		z"/>
</g>
<g id="Grensesnitt_negativ" class="st0">
	<rect id="_x23_374453" x="-74" y="-68" class="st4" width="1334" height="500"/>
	<path id="Grensesnitt_-_Horisontal_1_" class="st5" d="M397.2,186.9v-4.7h24.9v30.1h-4.7v-9.9c-1,1.7-2.2,3.3-3.5,4.7
		c-1.3,1.4-2.8,2.6-4.6,3.6c-1.7,1-3.7,1.8-6,2.3c-2.3,0.5-4.8,0.8-7.7,0.8c-3.7,0-7.1-0.6-10.2-1.9c-3.1-1.3-5.8-3.2-8.1-5.8
		c-2.3-2.6-4-5.8-5.3-9.7c-1.3-3.9-1.9-8.4-1.9-13.6c0-4.3,0.5-8.2,1.6-11.9c1.1-3.7,2.7-6.9,5-9.6c2.2-2.7,5-4.9,8.4-6.4
		c3.4-1.6,7.3-2.3,11.9-2.3c3.1,0,5.9,0.4,8.6,1.1c2.7,0.8,5.1,1.9,7.2,3.4c2.1,1.5,3.9,3.5,5.4,5.7c1.5,2.3,2.5,5,3.2,8.1h-5.7
		c-0.5-2.2-1.3-4.1-2.5-5.8c-1.2-1.7-2.5-3.2-4.2-4.3c-1.6-1.2-3.4-2-5.4-2.7c-2-0.6-4.1-0.9-6.2-0.9c-3.8,0-7.1,0.7-9.9,2
		c-2.7,1.3-5,3.2-6.8,5.7c-1.8,2.5-3.1,5.4-3.9,8.8c-0.8,3.4-1.3,7.2-1.3,11.3c0,3.2,0.5,6.3,1.4,9.2c0.9,2.9,2.3,5.5,4.1,7.7
		c1.8,2.2,4,4,6.6,5.3c2.6,1.3,5.6,1.9,8.9,1.9c1.6,0,3.2-0.2,4.9-0.5c1.7-0.4,3.3-0.9,4.9-1.7c1.6-0.8,3-1.9,4.4-3.2
		c1.3-1.3,2.5-2.9,3.5-4.8c0.9-1.8,1.5-3.7,1.9-5.7s0.6-4.1,0.6-6.3H397.2z M463.1,185.8v26.4l-5.5-0.1v-58.1h22.8
		c6.4,0,11.3,1.2,14.7,3.6c3.4,2.4,5.1,6.3,5.1,11.7c0,3.7-0.7,6.6-2.2,8.7c-1.5,2.2-3.9,4-7.2,5.5c1.7,0.6,3.1,1.5,4,2.6
		s1.7,2.4,2.2,3.9c0.5,1.5,0.8,3,0.9,4.6c0.1,1.6,0.2,3.2,0.3,4.7c0.1,2.2,0.1,4,0.3,5.5c0.1,1.5,0.3,2.6,0.5,3.6
		c0.2,0.9,0.4,1.6,0.7,2.1c0.3,0.5,0.6,0.9,1,1.2v0.5l-6.1,0.1c-0.6-1-1-2.3-1.3-4c-0.2-1.7-0.4-3.5-0.6-5.4
		c-0.1-1.9-0.2-3.7-0.3-5.5c-0.1-1.8-0.2-3.2-0.4-4.4c-0.3-1.6-0.8-2.8-1.6-3.8c-0.7-0.9-1.6-1.7-2.6-2.1c-1-0.5-2.2-0.8-3.4-1
		c-1.3-0.2-2.6-0.2-3.9-0.2H463.1z M480.3,181.2c2,0,3.9-0.2,5.7-0.6c1.8-0.4,3.3-1.1,4.6-2.1c1.3-0.9,2.3-2.1,3.1-3.6
		c0.8-1.5,1.1-3.2,1.1-5.3c0-2.2-0.4-3.9-1.2-5.3c-0.8-1.4-1.8-2.5-3.2-3.3c-1.3-0.8-2.8-1.4-4.5-1.7c-1.7-0.3-3.5-0.5-5.3-0.5
		h-17.5v22.4H480.3z M536.2,212.3v-58.2h38.7v4.7h-33.2v21h30v4.7h-30v23.1h34v4.7H536.2z M616.9,161.5h-0.2v50.8h-5.5v-58.2h6.2
		l33.6,50.9h0.2v-50.9h5.5v58.2h-6.4L616.9,161.5z M697.6,194.9c0.2,2.6,0.8,4.8,1.7,6.6c0.9,1.8,2.2,3.3,3.6,4.4
		c1.5,1.1,3.2,2,5.1,2.5c1.9,0.5,4,0.8,6.2,0.8c2.6,0,4.8-0.3,6.7-1c1.9-0.6,3.4-1.5,4.6-2.6c1.2-1.1,2.1-2.4,2.6-3.8
		c0.6-1.5,0.8-3,0.8-4.6c0-2.3-0.5-4.1-1.5-5.5c-1-1.4-2.4-2.5-4-3.4c-1.6-0.9-3.5-1.6-5.7-2.1c-2.1-0.5-4.3-1.1-6.5-1.6
		c-2.2-0.5-4.4-1.1-6.5-1.8c-2.1-0.7-4-1.6-5.7-2.8c-1.6-1.2-3-2.7-4-4.6c-1-1.9-1.5-4.2-1.5-7.1c0-2,0.4-3.9,1.3-5.8
		c0.8-1.9,2.1-3.6,3.7-5c1.6-1.5,3.7-2.6,6.2-3.5s5.3-1.3,8.6-1.3c3.3,0,6.2,0.5,8.6,1.4c2.5,0.9,4.5,2.2,6.1,3.8s2.8,3.4,3.6,5.5
		c0.8,2.1,1.2,4.3,1.2,6.7h-5.3c0-2.2-0.4-4.1-1.2-5.7c-0.8-1.6-1.8-2.9-3.2-4c-1.3-1-2.9-1.8-4.6-2.3c-1.7-0.5-3.5-0.7-5.3-0.7
		c-2.8,0-5.2,0.4-7.1,1.2c-1.9,0.8-3.4,1.8-4.6,3c-1.1,1.2-1.9,2.6-2.3,4.1c-0.4,1.5-0.5,3-0.2,4.5c0.3,1.9,1.1,3.4,2.3,4.5
		c1.2,1.1,2.6,2.1,4.4,2.8c1.7,0.7,3.6,1.3,5.7,1.8c2.1,0.5,4.2,0.9,6.3,1.5c2.2,0.5,4.2,1.1,6.3,1.8c2,0.7,3.8,1.6,5.4,2.8
		c1.6,1.2,2.8,2.7,3.8,4.6c0.9,1.9,1.4,4.2,1.4,7c0,5.4-1.9,9.6-5.6,12.5c-3.7,3-8.9,4.4-15.7,4.4c-3,0-5.8-0.4-8.4-1.2
		c-2.6-0.8-4.8-2-6.7-3.6c-1.9-1.6-3.4-3.6-4.4-5.9s-1.6-5.1-1.6-8.3H697.6z M770.3,212.3v-58.2H809v4.7h-33.2v21h30v4.7h-30v23.1
		h34v4.7H770.3z M850.7,194.9c0.2,2.6,0.8,4.8,1.7,6.6c0.9,1.8,2.2,3.3,3.6,4.4c1.5,1.1,3.2,2,5.1,2.5c1.9,0.5,4,0.8,6.2,0.8
		c2.6,0,4.8-0.3,6.7-1c1.9-0.6,3.4-1.5,4.6-2.6c1.2-1.1,2.1-2.4,2.6-3.8c0.6-1.5,0.8-3,0.8-4.6c0-2.3-0.5-4.1-1.5-5.5
		c-1-1.4-2.4-2.5-4-3.4s-3.5-1.6-5.7-2.1c-2.1-0.5-4.3-1.1-6.5-1.6c-2.2-0.5-4.4-1.1-6.5-1.8c-2.1-0.7-4-1.6-5.7-2.8
		c-1.6-1.2-3-2.7-4-4.6c-1-1.9-1.5-4.2-1.5-7.1c0-2,0.4-3.9,1.3-5.8c0.8-1.9,2.1-3.6,3.7-5c1.6-1.5,3.7-2.6,6.2-3.5
		c2.5-0.9,5.3-1.3,8.6-1.3c3.3,0,6.2,0.5,8.6,1.4c2.5,0.9,4.5,2.2,6.1,3.8c1.6,1.6,2.8,3.4,3.6,5.5c0.8,2.1,1.2,4.3,1.2,6.7h-5.3
		c0-2.2-0.4-4.1-1.2-5.7c-0.8-1.6-1.8-2.9-3.2-4c-1.3-1-2.9-1.8-4.6-2.3c-1.7-0.5-3.5-0.7-5.3-0.7c-2.8,0-5.2,0.4-7.1,1.2
		c-1.9,0.8-3.4,1.8-4.6,3c-1.1,1.2-1.9,2.6-2.3,4.1c-0.4,1.5-0.5,3-0.2,4.5c0.3,1.9,1.1,3.4,2.3,4.5c1.2,1.1,2.6,2.1,4.4,2.8
		c1.7,0.7,3.6,1.3,5.7,1.8c2.1,0.5,4.2,0.9,6.3,1.5c2.2,0.5,4.2,1.1,6.3,1.8c2,0.7,3.8,1.6,5.4,2.8c1.6,1.2,2.8,2.7,3.8,4.6
		c0.9,1.9,1.4,4.2,1.4,7c0,5.4-1.9,9.6-5.6,12.5c-3.7,3-8.9,4.4-15.7,4.4c-3,0-5.8-0.4-8.4-1.2c-2.6-0.8-4.8-2-6.7-3.6
		c-1.9-1.6-3.4-3.6-4.4-5.9s-1.6-5.1-1.6-8.3H850.7z M928.9,161.5h-0.2v50.8h-5.5v-58.2h6.2l33.6,50.9h0.2v-50.9h5.5v58.2h-6.4
		L928.9,161.5z M1004.3,212.3v-58.2h5.5v58.2H1004.3z M1045.3,154.1h42.4v4.7h-18.4v53.5h-5.5v-53.5h-18.4V154.1z M1123.2,154.1
		h42.4v4.7h-18.4v53.5h-5.5v-53.5h-18.4V154.1z"/>
	<path id="Grensesnitt_-_G_1_" class="st5" d="M176.6,347.2c-86.1,0-156.2-70.1-156.2-156.2S90.5,34.7,176.6,34.7l0-16.1l41.9,41.9
		l-41.9,41.9l0-16.1C118.9,86.3,72,133.2,72,190.9s46.9,104.6,104.6,104.6c31.5,0,58.1-27.8,58.1-60.7c0-14.2-11.5-25.7-25.7-25.7
		h-32.3l0,16l-41.9-41.9l41.9-41.9l0,16.2H209c42.7,0,77.4,34.7,77.4,77.4c0,29.3-11.3,57.1-31.7,78.5
		C233.7,335.1,206,347.2,176.6,347.2z"/>
</g>
<g id="Grensesnitt_key__x28_black_x29_" class="st0">
	<rect id="hvit_bakgrunn_1_" x="-74" y="-68" class="st5" width="1334" height="500"/>
	<path id="Grensesnitt_-_Horisontal_2_" class="st6" d="M397.2,186.9v-4.7h24.9v30.1h-4.7v-9.9c-1,1.7-2.2,3.3-3.5,4.7
		c-1.3,1.4-2.8,2.6-4.6,3.6c-1.7,1-3.7,1.8-6,2.3c-2.3,0.5-4.8,0.8-7.7,0.8c-3.7,0-7.1-0.6-10.2-1.9c-3.1-1.3-5.8-3.2-8.1-5.8
		c-2.3-2.6-4-5.8-5.3-9.7c-1.3-3.9-1.9-8.4-1.9-13.6c0-4.3,0.5-8.2,1.6-11.9c1.1-3.7,2.7-6.9,5-9.6c2.2-2.7,5-4.9,8.4-6.4
		c3.4-1.6,7.3-2.3,11.9-2.3c3.1,0,5.9,0.4,8.6,1.1c2.7,0.8,5.1,1.9,7.2,3.4c2.1,1.5,3.9,3.5,5.4,5.7c1.5,2.3,2.5,5,3.2,8.1h-5.7
		c-0.5-2.2-1.3-4.1-2.5-5.8c-1.2-1.7-2.5-3.2-4.2-4.3c-1.6-1.2-3.4-2-5.4-2.7c-2-0.6-4.1-0.9-6.2-0.9c-3.8,0-7.1,0.7-9.9,2
		c-2.7,1.3-5,3.2-6.8,5.7c-1.8,2.5-3.1,5.4-3.9,8.8c-0.8,3.4-1.3,7.2-1.3,11.3c0,3.2,0.5,6.3,1.4,9.2c0.9,2.9,2.3,5.5,4.1,7.7
		c1.8,2.2,4,4,6.6,5.3c2.6,1.3,5.6,1.9,8.9,1.9c1.6,0,3.2-0.2,4.9-0.5c1.7-0.4,3.3-0.9,4.9-1.7c1.6-0.8,3-1.9,4.4-3.2
		c1.3-1.3,2.5-2.9,3.5-4.8c0.9-1.8,1.5-3.7,1.9-5.7s0.6-4.1,0.6-6.3H397.2z M463.1,185.8v26.4l-5.5-0.1v-58.1h22.8
		c6.4,0,11.3,1.2,14.7,3.6c3.4,2.4,5.1,6.3,5.1,11.7c0,3.7-0.7,6.6-2.2,8.7c-1.5,2.2-3.9,4-7.2,5.5c1.7,0.6,3.1,1.5,4,2.6
		s1.7,2.4,2.2,3.9c0.5,1.5,0.8,3,0.9,4.6c0.1,1.6,0.2,3.2,0.3,4.7c0.1,2.2,0.1,4,0.3,5.5c0.1,1.5,0.3,2.6,0.5,3.6
		c0.2,0.9,0.4,1.6,0.7,2.1c0.3,0.5,0.6,0.9,1,1.2v0.5l-6.1,0.1c-0.6-1-1-2.3-1.3-4c-0.2-1.7-0.4-3.5-0.6-5.4
		c-0.1-1.9-0.2-3.7-0.3-5.5c-0.1-1.8-0.2-3.2-0.4-4.4c-0.3-1.6-0.8-2.8-1.6-3.8c-0.7-0.9-1.6-1.7-2.6-2.1c-1-0.5-2.2-0.8-3.4-1
		c-1.3-0.2-2.6-0.2-3.9-0.2H463.1z M480.3,181.2c2,0,3.9-0.2,5.7-0.6c1.8-0.4,3.3-1.1,4.6-2.1c1.3-0.9,2.3-2.1,3.1-3.6
		c0.8-1.5,1.1-3.2,1.1-5.3c0-2.2-0.4-3.9-1.2-5.3c-0.8-1.4-1.8-2.5-3.2-3.3c-1.3-0.8-2.8-1.4-4.5-1.7c-1.7-0.3-3.5-0.5-5.3-0.5
		h-17.5v22.4H480.3z M536.2,212.3v-58.2h38.7v4.7h-33.2v21h30v4.7h-30v23.1h34v4.7H536.2z M616.9,161.5h-0.2v50.8h-5.5v-58.2h6.2
		l33.6,50.9h0.2v-50.9h5.5v58.2h-6.4L616.9,161.5z M697.6,194.9c0.2,2.6,0.8,4.8,1.7,6.6c0.9,1.8,2.2,3.3,3.6,4.4
		c1.5,1.1,3.2,2,5.1,2.5c1.9,0.5,4,0.8,6.2,0.8c2.6,0,4.8-0.3,6.7-1c1.9-0.6,3.4-1.5,4.6-2.6c1.2-1.1,2.1-2.4,2.6-3.8
		c0.6-1.5,0.8-3,0.8-4.6c0-2.3-0.5-4.1-1.5-5.5c-1-1.4-2.4-2.5-4-3.4c-1.6-0.9-3.5-1.6-5.7-2.1c-2.1-0.5-4.3-1.1-6.5-1.6
		c-2.2-0.5-4.4-1.1-6.5-1.8c-2.1-0.7-4-1.6-5.7-2.8c-1.6-1.2-3-2.7-4-4.6c-1-1.9-1.5-4.2-1.5-7.1c0-2,0.4-3.9,1.3-5.8
		c0.8-1.9,2.1-3.6,3.7-5c1.6-1.5,3.7-2.6,6.2-3.5s5.3-1.3,8.6-1.3c3.3,0,6.2,0.5,8.6,1.4c2.5,0.9,4.5,2.2,6.1,3.8s2.8,3.4,3.6,5.5
		c0.8,2.1,1.2,4.3,1.2,6.7h-5.3c0-2.2-0.4-4.1-1.2-5.7c-0.8-1.6-1.8-2.9-3.2-4c-1.3-1-2.9-1.8-4.6-2.3c-1.7-0.5-3.5-0.7-5.3-0.7
		c-2.8,0-5.2,0.4-7.1,1.2c-1.9,0.8-3.4,1.8-4.6,3c-1.1,1.2-1.9,2.6-2.3,4.1c-0.4,1.5-0.5,3-0.2,4.5c0.3,1.9,1.1,3.4,2.3,4.5
		c1.2,1.1,2.6,2.1,4.4,2.8c1.7,0.7,3.6,1.3,5.7,1.8c2.1,0.5,4.2,0.9,6.3,1.5c2.2,0.5,4.2,1.1,6.3,1.8c2,0.7,3.8,1.6,5.4,2.8
		c1.6,1.2,2.8,2.7,3.8,4.6c0.9,1.9,1.4,4.2,1.4,7c0,5.4-1.9,9.6-5.6,12.5c-3.7,3-8.9,4.4-15.7,4.4c-3,0-5.8-0.4-8.4-1.2
		c-2.6-0.8-4.8-2-6.7-3.6c-1.9-1.6-3.4-3.6-4.4-5.9s-1.6-5.1-1.6-8.3H697.6z M770.3,212.3v-58.2H809v4.7h-33.2v21h30v4.7h-30v23.1
		h34v4.7H770.3z M850.7,194.9c0.2,2.6,0.8,4.8,1.7,6.6c0.9,1.8,2.2,3.3,3.6,4.4c1.5,1.1,3.2,2,5.1,2.5c1.9,0.5,4,0.8,6.2,0.8
		c2.6,0,4.8-0.3,6.7-1c1.9-0.6,3.4-1.5,4.6-2.6c1.2-1.1,2.1-2.4,2.6-3.8c0.6-1.5,0.8-3,0.8-4.6c0-2.3-0.5-4.1-1.5-5.5
		c-1-1.4-2.4-2.5-4-3.4s-3.5-1.6-5.7-2.1c-2.1-0.5-4.3-1.1-6.5-1.6c-2.2-0.5-4.4-1.1-6.5-1.8c-2.1-0.7-4-1.6-5.7-2.8
		c-1.6-1.2-3-2.7-4-4.6c-1-1.9-1.5-4.2-1.5-7.1c0-2,0.4-3.9,1.3-5.8c0.8-1.9,2.1-3.6,3.7-5c1.6-1.5,3.7-2.6,6.2-3.5
		c2.5-0.9,5.3-1.3,8.6-1.3c3.3,0,6.2,0.5,8.6,1.4c2.5,0.9,4.5,2.2,6.1,3.8c1.6,1.6,2.8,3.4,3.6,5.5c0.8,2.1,1.2,4.3,1.2,6.7h-5.3
		c0-2.2-0.4-4.1-1.2-5.7c-0.8-1.6-1.8-2.9-3.2-4c-1.3-1-2.9-1.8-4.6-2.3c-1.7-0.5-3.5-0.7-5.3-0.7c-2.8,0-5.2,0.4-7.1,1.2
		c-1.9,0.8-3.4,1.8-4.6,3c-1.1,1.2-1.9,2.6-2.3,4.1c-0.4,1.5-0.5,3-0.2,4.5c0.3,1.9,1.1,3.4,2.3,4.5c1.2,1.1,2.6,2.1,4.4,2.8
		c1.7,0.7,3.6,1.3,5.7,1.8c2.1,0.5,4.2,0.9,6.3,1.5c2.2,0.5,4.2,1.1,6.3,1.8c2,0.7,3.8,1.6,5.4,2.8c1.6,1.2,2.8,2.7,3.8,4.6
		c0.9,1.9,1.4,4.2,1.4,7c0,5.4-1.9,9.6-5.6,12.5c-3.7,3-8.9,4.4-15.7,4.4c-3,0-5.8-0.4-8.4-1.2c-2.6-0.8-4.8-2-6.7-3.6
		c-1.9-1.6-3.4-3.6-4.4-5.9s-1.6-5.1-1.6-8.3H850.7z M928.9,161.5h-0.2v50.8h-5.5v-58.2h6.2l33.6,50.9h0.2v-50.9h5.5v58.2h-6.4
		L928.9,161.5z M1004.3,212.3v-58.2h5.5v58.2H1004.3z M1045.3,154.1h42.4v4.7h-18.4v53.5h-5.5v-53.5h-18.4V154.1z M1123.2,154.1
		h42.4v4.7h-18.4v53.5h-5.5v-53.5h-18.4V154.1z"/>
	<path id="Grensesnitt_-_G_2_" class="st6" d="M176.6,347.2c-86.1,0-156.2-70.1-156.2-156.2S90.5,34.7,176.6,34.7l0-16.1l41.9,41.9
		l-41.9,41.9l0-16.1C118.9,86.3,72,133.2,72,190.9s46.9,104.6,104.6,104.6c31.5,0,58.1-27.8,58.1-60.7c0-14.2-11.5-25.7-25.7-25.7
		h-32.3l0,16l-41.9-41.9l41.9-41.9l0,16.2H209c42.7,0,77.4,34.7,77.4,77.4c0,29.3-11.3,57.1-31.7,78.5
		C233.7,335.1,206,347.2,176.6,347.2z"/>
</g>
<g id="Grensesnitt_hvit" class="st0">
	<rect id="key__x28_black_x29__bakgrunn" x="-74" y="-68" class="st6" width="1334" height="500"/>
	<path id="Grensesnitt_-_Horisontal_3_" class="st5" d="M397.2,186.9v-4.7h24.9v30.1h-4.7v-9.9c-1,1.7-2.2,3.3-3.5,4.7
		c-1.3,1.4-2.8,2.6-4.6,3.6c-1.7,1-3.7,1.8-6,2.3c-2.3,0.5-4.8,0.8-7.7,0.8c-3.7,0-7.1-0.6-10.2-1.9c-3.1-1.3-5.8-3.2-8.1-5.8
		c-2.3-2.6-4-5.8-5.3-9.7c-1.3-3.9-1.9-8.4-1.9-13.6c0-4.3,0.5-8.2,1.6-11.9c1.1-3.7,2.7-6.9,5-9.6c2.2-2.7,5-4.9,8.4-6.4
		c3.4-1.6,7.3-2.3,11.9-2.3c3.1,0,5.9,0.4,8.6,1.1c2.7,0.8,5.1,1.9,7.2,3.4c2.1,1.5,3.9,3.5,5.4,5.7c1.5,2.3,2.5,5,3.2,8.1h-5.7
		c-0.5-2.2-1.3-4.1-2.5-5.8c-1.2-1.7-2.5-3.2-4.2-4.3c-1.6-1.2-3.4-2-5.4-2.7c-2-0.6-4.1-0.9-6.2-0.9c-3.8,0-7.1,0.7-9.9,2
		c-2.7,1.3-5,3.2-6.8,5.7c-1.8,2.5-3.1,5.4-3.9,8.8c-0.8,3.4-1.3,7.2-1.3,11.3c0,3.2,0.5,6.3,1.4,9.2c0.9,2.9,2.3,5.5,4.1,7.7
		c1.8,2.2,4,4,6.6,5.3c2.6,1.3,5.6,1.9,8.9,1.9c1.6,0,3.2-0.2,4.9-0.5c1.7-0.4,3.3-0.9,4.9-1.7c1.6-0.8,3-1.9,4.4-3.2
		c1.3-1.3,2.5-2.9,3.5-4.8c0.9-1.8,1.5-3.7,1.9-5.7s0.6-4.1,0.6-6.3H397.2z M463.1,185.8v26.4l-5.5-0.1v-58.1h22.8
		c6.4,0,11.3,1.2,14.7,3.6c3.4,2.4,5.1,6.3,5.1,11.7c0,3.7-0.7,6.6-2.2,8.7c-1.5,2.2-3.9,4-7.2,5.5c1.7,0.6,3.1,1.5,4,2.6
		s1.7,2.4,2.2,3.9c0.5,1.5,0.8,3,0.9,4.6c0.1,1.6,0.2,3.2,0.3,4.7c0.1,2.2,0.1,4,0.3,5.5c0.1,1.5,0.3,2.6,0.5,3.6
		c0.2,0.9,0.4,1.6,0.7,2.1c0.3,0.5,0.6,0.9,1,1.2v0.5l-6.1,0.1c-0.6-1-1-2.3-1.3-4c-0.2-1.7-0.4-3.5-0.6-5.4
		c-0.1-1.9-0.2-3.7-0.3-5.5c-0.1-1.8-0.2-3.2-0.4-4.4c-0.3-1.6-0.8-2.8-1.6-3.8c-0.7-0.9-1.6-1.7-2.6-2.1c-1-0.5-2.2-0.8-3.4-1
		c-1.3-0.2-2.6-0.2-3.9-0.2H463.1z M480.3,181.2c2,0,3.9-0.2,5.7-0.6c1.8-0.4,3.3-1.1,4.6-2.1c1.3-0.9,2.3-2.1,3.1-3.6
		c0.8-1.5,1.1-3.2,1.1-5.3c0-2.2-0.4-3.9-1.2-5.3c-0.8-1.4-1.8-2.5-3.2-3.3c-1.3-0.8-2.8-1.4-4.5-1.7c-1.7-0.3-3.5-0.5-5.3-0.5
		h-17.5v22.4H480.3z M536.2,212.3v-58.2h38.7v4.7h-33.2v21h30v4.7h-30v23.1h34v4.7H536.2z M616.9,161.5h-0.2v50.8h-5.5v-58.2h6.2
		l33.6,50.9h0.2v-50.9h5.5v58.2h-6.4L616.9,161.5z M697.6,194.9c0.2,2.6,0.8,4.8,1.7,6.6c0.9,1.8,2.2,3.3,3.6,4.4
		c1.5,1.1,3.2,2,5.1,2.5c1.9,0.5,4,0.8,6.2,0.8c2.6,0,4.8-0.3,6.7-1c1.9-0.6,3.4-1.5,4.6-2.6c1.2-1.1,2.1-2.4,2.6-3.8
		c0.6-1.5,0.8-3,0.8-4.6c0-2.3-0.5-4.1-1.5-5.5c-1-1.4-2.4-2.5-4-3.4c-1.6-0.9-3.5-1.6-5.7-2.1c-2.1-0.5-4.3-1.1-6.5-1.6
		c-2.2-0.5-4.4-1.1-6.5-1.8c-2.1-0.7-4-1.6-5.7-2.8c-1.6-1.2-3-2.7-4-4.6c-1-1.9-1.5-4.2-1.5-7.1c0-2,0.4-3.9,1.3-5.8
		c0.8-1.9,2.1-3.6,3.7-5c1.6-1.5,3.7-2.6,6.2-3.5s5.3-1.3,8.6-1.3c3.3,0,6.2,0.5,8.6,1.4c2.5,0.9,4.5,2.2,6.1,3.8s2.8,3.4,3.6,5.5
		c0.8,2.1,1.2,4.3,1.2,6.7h-5.3c0-2.2-0.4-4.1-1.2-5.7c-0.8-1.6-1.8-2.9-3.2-4c-1.3-1-2.9-1.8-4.6-2.3c-1.7-0.5-3.5-0.7-5.3-0.7
		c-2.8,0-5.2,0.4-7.1,1.2c-1.9,0.8-3.4,1.8-4.6,3c-1.1,1.2-1.9,2.6-2.3,4.1c-0.4,1.5-0.5,3-0.2,4.5c0.3,1.9,1.1,3.4,2.3,4.5
		c1.2,1.1,2.6,2.1,4.4,2.8c1.7,0.7,3.6,1.3,5.7,1.8c2.1,0.5,4.2,0.9,6.3,1.5c2.2,0.5,4.2,1.1,6.3,1.8c2,0.7,3.8,1.6,5.4,2.8
		c1.6,1.2,2.8,2.7,3.8,4.6c0.9,1.9,1.4,4.2,1.4,7c0,5.4-1.9,9.6-5.6,12.5c-3.7,3-8.9,4.4-15.7,4.4c-3,0-5.8-0.4-8.4-1.2
		c-2.6-0.8-4.8-2-6.7-3.6c-1.9-1.6-3.4-3.6-4.4-5.9s-1.6-5.1-1.6-8.3H697.6z M770.3,212.3v-58.2H809v4.7h-33.2v21h30v4.7h-30v23.1
		h34v4.7H770.3z M850.7,194.9c0.2,2.6,0.8,4.8,1.7,6.6c0.9,1.8,2.2,3.3,3.6,4.4c1.5,1.1,3.2,2,5.1,2.5c1.9,0.5,4,0.8,6.2,0.8
		c2.6,0,4.8-0.3,6.7-1c1.9-0.6,3.4-1.5,4.6-2.6c1.2-1.1,2.1-2.4,2.6-3.8c0.6-1.5,0.8-3,0.8-4.6c0-2.3-0.5-4.1-1.5-5.5
		c-1-1.4-2.4-2.5-4-3.4s-3.5-1.6-5.7-2.1c-2.1-0.5-4.3-1.1-6.5-1.6c-2.2-0.5-4.4-1.1-6.5-1.8c-2.1-0.7-4-1.6-5.7-2.8
		c-1.6-1.2-3-2.7-4-4.6c-1-1.9-1.5-4.2-1.5-7.1c0-2,0.4-3.9,1.3-5.8c0.8-1.9,2.1-3.6,3.7-5c1.6-1.5,3.7-2.6,6.2-3.5
		c2.5-0.9,5.3-1.3,8.6-1.3c3.3,0,6.2,0.5,8.6,1.4c2.5,0.9,4.5,2.2,6.1,3.8c1.6,1.6,2.8,3.4,3.6,5.5c0.8,2.1,1.2,4.3,1.2,6.7h-5.3
		c0-2.2-0.4-4.1-1.2-5.7c-0.8-1.6-1.8-2.9-3.2-4c-1.3-1-2.9-1.8-4.6-2.3c-1.7-0.5-3.5-0.7-5.3-0.7c-2.8,0-5.2,0.4-7.1,1.2
		c-1.9,0.8-3.4,1.8-4.6,3c-1.1,1.2-1.9,2.6-2.3,4.1c-0.4,1.5-0.5,3-0.2,4.5c0.3,1.9,1.1,3.4,2.3,4.5c1.2,1.1,2.6,2.1,4.4,2.8
		c1.7,0.7,3.6,1.3,5.7,1.8c2.1,0.5,4.2,0.9,6.3,1.5c2.2,0.5,4.2,1.1,6.3,1.8c2,0.7,3.8,1.6,5.4,2.8c1.6,1.2,2.8,2.7,3.8,4.6
		c0.9,1.9,1.4,4.2,1.4,7c0,5.4-1.9,9.6-5.6,12.5c-3.7,3-8.9,4.4-15.7,4.4c-3,0-5.8-0.4-8.4-1.2c-2.6-0.8-4.8-2-6.7-3.6
		c-1.9-1.6-3.4-3.6-4.4-5.9s-1.6-5.1-1.6-8.3H850.7z M928.9,161.5h-0.2v50.8h-5.5v-58.2h6.2l33.6,50.9h0.2v-50.9h5.5v58.2h-6.4
		L928.9,161.5z M1004.3,212.3v-58.2h5.5v58.2H1004.3z M1045.3,154.1h42.4v4.7h-18.4v53.5h-5.5v-53.5h-18.4V154.1z M1123.2,154.1
		h42.4v4.7h-18.4v53.5h-5.5v-53.5h-18.4V154.1z"/>
	<path id="Grensesnitt_-_G_3_" class="st5" d="M176.6,347.2c-86.1,0-156.2-70.1-156.2-156.2S90.5,34.7,176.6,34.7l0-16.1l41.9,41.9
		l-41.9,41.9l0-16.1C118.9,86.3,72,133.2,72,190.9s46.9,104.6,104.6,104.6c31.5,0,58.1-27.8,58.1-60.7c0-14.2-11.5-25.7-25.7-25.7
		h-32.3l0,16l-41.9-41.9l41.9-41.9l0,16.2H209c42.7,0,77.4,34.7,77.4,77.4c0,29.3-11.3,57.1-31.7,78.5
		C233.7,335.1,206,347.2,176.6,347.2z"/>
</g>
</svg>
