<svg id="Layer_1" data-name="Layer 1" xmlns="http://www.w3.org/2000/svg" viewBox="0 0 300 24"><path d="M20.53,10.13V21.34h0l0,.38a13.58,13.58,0,0,1-8,2.28,12.75,12.75,0,0,1-9.06-3.22A11.4,11.4,0,0,1,0,12,11.42,11.42,0,0,1,3.53,3.32a12.71,12.71,0,0,1,9-3.32,14.82,14.82,0,0,1,6.89,1.49V6a13.19,13.19,0,0,0-6.82-1.9,7.7,7.7,0,0,0-5.7,2.17A7.87,7.87,0,0,0,4.72,12a8,8,0,0,0,2.1,5.85A7.93,7.93,0,0,0,12.66,20a10.37,10.37,0,0,0,3.53-.62v-5.5H11.86V10.13Z" fill="#fff"/><path d="M29.6,4v7.61h2.94a4.16,4.16,0,0,0,3-1,3.91,3.91,0,0,0,1-2.87A3.54,3.54,0,0,0,35.51,5a4.3,4.3,0,0,0-3-1Zm7.76,19.71L32,15.22H29.6v8.5H25.19V.41h7.28a9.16,9.16,0,0,1,6.29,2,6.74,6.74,0,0,1,2.31,5.36A7.45,7.45,0,0,1,39.85,12a7.11,7.11,0,0,1-3.26,2.52l6,9.2Z" fill="#fff"/><path d="M50.23,20.16h9.62v3.56H45.79V.41H59.71V4H50.23v6.33h8.43v3.52H50.23Z" fill="#fff"/><path d="M64.26,23.72V.41h5l5.67,9.72q1.39,2.38,2.48,4.46c.75,1.36,1.25,2.33,1.51,2.91l.38.86c-.18-1.91-.28-4.65-.28-8.23V.41h4.44V23.72h-5L72.69,14q-1.36-2.28-2.48-4.36c-.72-1.4-1.23-2.42-1.51-3l-.41-1A75.78,75.78,0,0,1,68.67,14v9.71Z" fill="#fff"/><path d="M101.46,1.38V5.6a10.78,10.78,0,0,0-5.6-1.55,4.17,4.17,0,0,0-2.59.72,2.35,2.35,0,0,0,.07,3.77,18.05,18.05,0,0,0,3,1.63c.93.41,1.69.78,2.27,1.1a10.69,10.69,0,0,1,1.89,1.28,5.08,5.08,0,0,1,1.54,2,6.24,6.24,0,0,1,.52,2.63,6.12,6.12,0,0,1-2.27,5A9,9,0,0,1,94.39,24a13.28,13.28,0,0,1-6.61-1.49V18.05a11.11,11.11,0,0,0,6.58,2.15,4.12,4.12,0,0,0,2.58-.76,2.58,2.58,0,0,0,1-2.11,2.45,2.45,0,0,0-.24-1.11,2.66,2.66,0,0,0-1-1,12.66,12.66,0,0,0-1.15-.69c-.26-.14-.8-.39-1.64-.76a4.67,4.67,0,0,0-.53-.24c-.86-.4-1.56-.74-2.1-1a13.39,13.39,0,0,1-1.74-1.28,5.33,5.33,0,0,1-1.44-1.9,6.68,6.68,0,0,1-.45-2.53A5.85,5.85,0,0,1,89.81,2,9.14,9.14,0,0,1,95.72.24,13.33,13.33,0,0,1,101.46,1.38Z" fill="#fff"/><path d="M110.88,20.16h9.62v3.56H106.44V.41h13.92V4h-9.48v6.33h8.43v3.52h-8.43Z" fill="#fff"/><path d="M138,1.38V5.6a10.72,10.72,0,0,0-5.59-1.55,4.17,4.17,0,0,0-2.59.72,2.29,2.29,0,0,0-.91,1.87,2.33,2.33,0,0,0,1,1.9,18.05,18.05,0,0,0,3,1.63c.93.41,1.69.78,2.27,1.1a11.48,11.48,0,0,1,1.89,1.28,5.08,5.08,0,0,1,1.54,2,6.24,6.24,0,0,1,.52,2.63,6.12,6.12,0,0,1-2.27,5A9,9,0,0,1,131,24a13.28,13.28,0,0,1-6.61-1.49V18.05a11.08,11.08,0,0,0,6.57,2.15,4.13,4.13,0,0,0,2.59-.76,2.58,2.58,0,0,0,1-2.11,2.45,2.45,0,0,0-.24-1.11,2.74,2.74,0,0,0-1-1,12.66,12.66,0,0,0-1.15-.69c-.26-.14-.81-.39-1.65-.76a4,4,0,0,0-.52-.24c-.86-.4-1.56-.74-2.1-1a14.14,14.14,0,0,1-1.75-1.28,5.19,5.19,0,0,1-1.43-1.9,6.67,6.67,0,0,1-.46-2.53A5.85,5.85,0,0,1,126.39,2,9.14,9.14,0,0,1,132.3.24,13.28,13.28,0,0,1,138,1.38Z" fill="#fff"/><path d="M143,23.72V.41h5l5.67,9.72q1.4,2.38,2.48,4.46c.74,1.36,1.25,2.33,1.5,2.91l.39.86q-.28-2.86-.28-8.23V.41h4.44V23.72h-5L151.45,14q-1.37-2.28-2.49-4.36c-.72-1.4-1.22-2.42-1.5-3l-.42-1a73.05,73.05,0,0,1,.39,8.34v9.71Z" fill="#fff"/><path d="M167.38,23.72V.41h4.4V23.72Z" fill="#fff"/><path d="M191.83.41V4h-6V23.72h-4.44V4h-6V.41Z" fill="#fff"/><path d="M210,.41V4h-6V23.72h-4.44V4h-6V.41Z" fill="#fff"/><rect x="228" width="24" height="24" fill="red"/><rect x="252" width="24" height="24" fill="lime"/><rect x="276" width="24" height="24" fill="blue"/></svg>