<svg width="80" height="80" viewBox="0 0 80 80" fill="none" xmlns="http://www.w3.org/2000/svg">
<path d="M78.3583 10.4092L67.1564 6.33128L68.6406 2.70643C68.9062 2.06584 68.6093 1.33149 67.9688 1.06588L65.6565 0.0971694C65.016 -0.168444 64.2817 0.128418 64.0161 0.769016L62.4537 4.62823L50.1737 0.159667C48.7832 -0.340312 47.3615 0.581524 46.9709 1.6596L41.2684 17.3464C40.7997 18.6432 41.4559 20.0807 42.7682 20.5494L54.2671 24.7367L50.7518 33.3926C50.1737 33.1114 49.6113 32.7833 48.9551 32.6427L39.6279 30.7834L38.05 28.2678C36.1908 25.2992 33.5504 23.0337 30.4882 21.6275C32.488 19.5963 33.7223 16.8152 33.7223 13.7528C33.7223 7.54998 28.6759 2.50332 22.4734 2.50332C16.271 2.50332 11.2558 7.54998 11.2558 13.7528C11.2558 17.0027 12.662 19.9088 14.8649 21.9712C11.3027 23.7368 8.31865 26.6117 6.45947 30.3303L0.788172 41.6423C-1.05539 45.3452 0.444458 49.8607 4.1472 51.7043C4.25657 51.7512 8.2874 53.9074 12.1151 50.9231L7.67809 70.8754C6.78756 74.9065 9.33417 78.9219 13.365 79.8281C13.9274 79.9531 14.4586 80 14.9898 80C18.4739 80 21.5517 77.5313 22.3016 74.1253L24.9888 62.0164L27.4729 65.1256V72.5003C27.4729 76.6408 30.832 80 34.9722 80C39.1124 80 42.4714 76.6408 42.4714 72.5003V64.2507C42.4714 61.4227 41.5027 58.6572 39.7373 56.4385L32.4724 47.3608V44.189C33.4567 44.689 34.5191 45.0484 35.6127 45.2671L45.1118 47.1733L45.0649 47.2983C44.7993 47.9389 45.0961 48.6732 45.7367 48.9388L48.049 49.9075C48.6895 50.1731 49.4238 49.8763 49.6894 49.2357L50.7362 46.6421C52.7672 45.6421 54.3452 43.814 54.8295 41.4704C55.1107 40.0955 54.9701 38.6893 54.5014 37.4081L58.9697 26.4398L70.9372 30.799C72.3277 31.3146 73.7494 30.3615 74.14 29.299L79.8426 13.6122C80.3269 12.3154 79.6551 10.8936 78.3583 10.4092ZM22.4891 7.5031C25.9418 7.5031 28.7384 10.2999 28.7384 13.7528C28.7384 17.2058 25.9418 20.0026 22.4891 20.0026C19.0363 20.0026 16.2397 17.2058 16.2397 13.7528C16.2397 10.2999 19.0363 7.5031 22.4891 7.5031ZM47.0491 42.4547H46.9866L36.6126 40.3767C34.5972 39.9705 32.8161 38.7361 31.7225 37.0018C29.4415 33.3614 29.1759 32.627 27.4886 31.4396V49.1263L35.8471 59.579C36.9095 60.9071 37.4875 62.5632 37.4875 64.2663V72.5003C37.4875 73.8753 36.3626 75.0002 34.9878 75.0002C33.6129 75.0002 32.488 73.8753 32.488 72.5003V64.2507C32.488 63.6882 32.3006 63.1257 31.9412 62.6882L23.7858 52.5012H21.9891L17.4271 73.0472C17.1615 74.2502 15.9272 75.2658 14.443 74.9533C13.0994 74.6565 12.2401 73.3128 12.537 71.9691L17.474 49.7357V32.1895C16.6459 32.9239 15.896 33.752 15.3804 34.7988L9.72476 46.1264C9.24043 47.0952 7.83432 47.9857 6.36572 47.2514C5.13148 46.6264 4.63153 45.1265 5.24084 43.8922L10.8965 32.5645C13.2244 27.9085 17.9114 25.0024 23.114 25.0024C27.4886 25.0024 31.4725 27.221 33.7848 30.924L35.9252 34.3457C36.2845 34.9238 36.8782 35.33 37.55 35.4707L47.924 37.5487C48.2677 37.6112 48.5801 37.7518 48.8457 37.9393L47.0491 42.4547ZM70.2967 25.2523L46.8147 16.7058L50.8143 5.7063L74.2963 14.2528L70.2967 25.2523Z" fill="white"/>
</svg>
